ISO-10303-21;
HEADER;
FILE_DESCRIPTION (( 'STEP AP203' ),
    '1' );
FILE_NAME ('¶þ¼¶´ó´øÂÖ.STEP',
    '2026-08-20T03:41:10',
    ( '' ),
    ( '' ),
    'SwSTEP 2.0',
    'SolidWorks 2026',
    '' );
FILE_SCHEMA (( 'CONFIG_CONTROL_DESIGN' ));
ENDSEC;

DATA;
#1 = EDGE_CURVE ( 'NONE', #194, #229, #124, .T. ) ;
#2 = CYLINDRICAL_SURFACE ( 'NONE', #384, 26.50000000000000355 ) ;
#3 = CYLINDRICAL_SURFACE ( 'NONE', #133, 26.50000000000000355 ) ;
#4 = DIRECTION ( 'NONE',  ( 1.000000000000000000, 0.000000000000000000, 0.000000000000000000 ) ) ;
#5 = EDGE_CURVE ( 'NONE', #122, #181, #129, .T. ) ;
#6 = ORIENTED_EDGE ( 'NONE', *, *, #31, .F. ) ;
#7 = DIRECTION ( 'NONE',  ( -1.000000000000000000, 0.000000000000000000, 0.000000000000000000 ) ) ;
#8 = EDGE_LOOP ( 'NONE', ( #24, #216, #359, #259 ) ) ;
#9 = CARTESIAN_POINT ( 'NONE',  ( 0.000000000000000000, 0.000000000000000000, -0.2500000000000000000 ) ) ;
#10 = EDGE_CURVE ( 'NONE', #229, #194, #327, .T. ) ;
#11 = LINE ( 'NONE', #112, #306 ) ;
#12 = PRODUCT_DEFINITION_FORMATION_WITH_SPECIFIED_SOURCE ( 'ä»', '', #381, .NOT_KNOWN. ) ;
#13 = AXIS2_PLACEMENT_3D ( 'NONE', #241, #319, #316 ) ;
#14 = AXIS2_PLACEMENT_3D ( 'NONE', #408, #374, #60 ) ;
#15 = PERSON_AND_ORGANIZATION ( #205, #403 ) ;
#16 = DIRECTION ( 'NONE',  ( -0.000000000000000000, -0.000000000000000000, -1.000000000000000000 ) ) ;
#17 = DATE_AND_TIME ( #130, #151 ) ;
#18 = AXIS2_PLACEMENT_3D ( 'NONE', #293, #161, #331 ) ;
#19 = ORIENTED_EDGE ( 'NONE', *, *, #78, .F. ) ;
#20 = EDGE_CURVE ( 'NONE', #85, #122, #103, .T. ) ;
#21 = DIRECTION ( 'NONE',  ( 0.000000000000000000, 0.000000000000000000, 1.000000000000000000 ) ) ;
#22 = EDGE_LOOP ( 'NONE', ( #314, #53, #329, #197 ) ) ;
#23 = CARTESIAN_POINT ( 'NONE',  ( 26.50000000000000355, 3.245314017740486554E-15, 1.500000000000000000 ) ) ;
#24 = ORIENTED_EDGE ( 'NONE', *, *, #20, .F. ) ;
#25 = VERTEX_POINT ( 'NONE', #263 ) ;
#26 = DIRECTION ( 'NONE',  ( 0.000000000000000000, 0.000000000000000000, 1.000000000000000000 ) ) ;
#27 = AXIS2_PLACEMENT_3D ( 'NONE', #394, #213, #4 ) ;
#28 = CYLINDRICAL_SURFACE ( 'NONE', #218, 25.00000000000000000 ) ;
#29 = ADVANCED_FACE ( 'NONE', ( #224 ), #232, .T. ) ;
#30 = CARTESIAN_POINT ( 'NONE',  ( 0.000000000000000000, 0.000000000000000000, 0.000000000000000000 ) ) ;
#31 = EDGE_CURVE ( 'NONE', #332, #128, #431, .T. ) ;
#32 = LOCAL_TIME ( 11, 41, 10.00000000000000000, #160 ) ;
#33 = AXIS2_PLACEMENT_3D ( 'NONE', #292, #186, #325 ) ;
#34 = PERSON_AND_ORGANIZATION_ROLE ( 'design_supplier' ) ;
#35 = CYLINDRICAL_SURFACE ( 'NONE', #164, 26.50000000000000355 ) ;
#36 = DIRECTION ( 'NONE',  ( -0.8944271909999158554, 1.095357396528405249E-16, 0.4472135954999577612 ) ) ;
#37 = EDGE_CURVE ( 'NONE', #76, #386, #446, .T. ) ;
#38 = DIRECTION ( 'NONE',  ( -1.000000000000000000, 0.000000000000000000, 0.000000000000000000 ) ) ;
#39 = EDGE_LOOP ( 'NONE', ( #132, #288, #79, #43 ) ) ;
#40 = AXIS2_PLACEMENT_3D ( 'NONE', #324, #16, #262 ) ;
#41 = DIRECTION ( 'NONE',  ( 1.000000000000000000, 0.000000000000000000, 0.000000000000000000 ) ) ;
#42 = CYLINDRICAL_SURFACE ( 'NONE', #443, 1.500000000000000222 ) ;
#43 = ORIENTED_EDGE ( 'NONE', *, *, #225, .T. ) ;
#44 = CARTESIAN_POINT ( 'NONE',  ( 0.000000000000000000, 0.000000000000000000, -1.500000000000000000 ) ) ;
#45 = ADVANCED_FACE ( 'NONE', ( #334 ), #35, .T. ) ;
#46 = PERSON_AND_ORGANIZATION ( #205, #403 ) ;
#47 = AXIS2_PLACEMENT_3D ( 'NONE', #328, #21, #125 ) ;
#48 = EDGE_LOOP ( 'NONE', ( #50, #417 ) ) ;
#49 = AXIS2_PLACEMENT_3D ( 'NONE', #375, #345, #62 ) ;
#50 = ORIENTED_EDGE ( 'NONE', *, *, #199, .T. ) ;
#51 = PERSON_AND_ORGANIZATION_ROLE ( 'creator' ) ;
#52 = APPROVAL ( #156, 'æœª' ) ;
#53 = ORIENTED_EDGE ( 'NONE', *, *, #170, .T. ) ;
#54 = MECHANICAL_CONTEXT ( 'NONE', #244, 'mechanical' ) ;
#55 = ORIENTED_EDGE ( 'NONE', *, *, #315, .F. ) ;
#56 = APPROVAL_PERSON_ORGANIZATION ( #15, #52, #256 ) ;
#57 = APPLICATION_PROTOCOL_DEFINITION ( 'international standard', 'config_control_design', 1994, #221 ) ;
#58 = VERTEX_POINT ( 'NONE', #142 ) ;
#59 = CARTESIAN_POINT ( 'NONE',  ( 0.000000000000000000, 0.000000000000000000, 1.500000000000000000 ) ) ;
#60 = DIRECTION ( 'NONE',  ( -1.000000000000000000, 0.000000000000000000, 0.000000000000000000 ) ) ;
#61 = CALENDAR_DATE ( 2026, 20, 8 ) ;
#62 = DIRECTION ( 'NONE',  ( 1.000000000000000000, 0.000000000000000000, 0.000000000000000000 ) ) ;
#63 = PERSON_AND_ORGANIZATION_ROLE ( 'classification_officer' ) ;
#64 = CARTESIAN_POINT ( 'NONE',  ( -25.00000000000000000, 3.061616997868383043E-15, -0.2500000000000000000 ) ) ;
#65 = EDGE_CURVE ( 'NONE', #58, #25, #383, .T. ) ;
#66 = DIRECTION ( 'NONE',  ( 1.000000000000000000, 0.000000000000000000, 0.000000000000000000 ) ) ;
#67 = CC_DESIGN_APPROVAL ( #52, ( #12 ) ) ;
#68 = AXIS2_PLACEMENT_3D ( 'NONE', #44, #420, #119 ) ;
#69 = DIRECTION ( 'NONE',  ( -0.000000000000000000, -0.000000000000000000, -1.000000000000000000 ) ) ;
#70 = VECTOR ( 'NONE', #141, 1000.000000000000000 ) ;
#71 = PRODUCT_DEFINITION ( 'æœ', '', #12, #350 ) ;
#72 = CARTESIAN_POINT ( 'NONE',  ( 0.000000000000000000, 0.000000000000000000, 1.500000000000000000 ) ) ;
#73 = ORIENTED_EDGE ( 'NONE', *, *, #318, .T. ) ;
#74 = UNCERTAINTY_MEASURE_WITH_UNIT (LENGTH_MEASURE( 1.000000000000000082E-05 ), #90, 'distance_accuracy_value', 'NONE');
#75 = CARTESIAN_POINT ( 'NONE',  ( 0.000000000000000000, 0.000000000000000000, -1.500000000000000000 ) ) ;
#76 = VERTEX_POINT ( 'NONE', #64 ) ;
#77 = CARTESIAN_POINT ( 'NONE',  ( 0.000000000000000000, 0.000000000000000000, 1.000000000000000222 ) ) ;
#78 = EDGE_CURVE ( 'NONE', #76, #194, #175, .T. ) ;
#79 = ORIENTED_EDGE ( 'NONE', *, *, #5, .T. ) ;
#80 = DIRECTION ( 'NONE',  ( -0.000000000000000000, -0.000000000000000000, -1.000000000000000000 ) ) ;
#81 = ADVANCED_FACE ( 'NONE', ( #277 ), #28, .T. ) ;
#82 = EDGE_LOOP ( 'NONE', ( #19, #349, #73, #178 ) ) ;
#83 = VECTOR ( 'NONE', #445, 1000.000000000000114 ) ;
#84 = DIRECTION ( 'NONE',  ( 1.000000000000000000, 0.000000000000000000, 0.000000000000000000 ) ) ;
#85 = VERTEX_POINT ( 'NONE', #307 ) ;
#86 = CARTESIAN_POINT ( 'NONE',  ( 1.500000000000000222, 1.836970198721030181E-16, -1.500000000000000000 ) ) ;
#87 = ORIENTED_EDGE ( 'NONE', *, *, #65, .F. ) ;
#88 = CC_DESIGN_PERSON_AND_ORGANIZATION_ASSIGNMENT ( #342, #63, ( #439 ) ) ;
#89 = AXIS2_PLACEMENT_3D ( 'NONE', #239, #203, #347 ) ;
#90 =( LENGTH_UNIT ( ) NAMED_UNIT ( * ) SI_UNIT ( .MILLI., .METRE. ) );
#91 = DIRECTION ( 'NONE',  ( 0.000000000000000000, 1.000000000000000000, 0.000000000000000000 ) ) ;
#92 = DIRECTION ( 'NONE',  ( -0.000000000000000000, -0.000000000000000000, -1.000000000000000000 ) ) ;
#93 = ORIENTED_EDGE ( 'NONE', *, *, #10, .T. ) ;
#94 = CYLINDRICAL_SURFACE ( 'NONE', #152, 25.00000000000000000 ) ;
#95 = ORIENTED_EDGE ( 'NONE', *, *, #252, .F. ) ;
#96 = CC_DESIGN_APPROVAL ( #323, ( #439 ) ) ;
#97 = CIRCLE ( 'NONE', #207, 26.50000000000000355 ) ;
#98 = AXIS2_PLACEMENT_3D ( 'NONE', #110, #348, #38 ) ;
#99 = VERTEX_POINT ( 'NONE', #172 ) ;
#100 = SECURITY_CLASSIFICATION_LEVEL ( 'unclassified' ) ;
#101 = DIRECTION ( 'NONE',  ( -0.8944271909999160775, 0.000000000000000000, -0.4472135954999573726 ) ) ;
#102 = DIRECTION ( 'NONE',  ( 1.000000000000000000, 0.000000000000000000, -0.000000000000000000 ) ) ;
#103 = CIRCLE ( 'NONE', #351, 26.50000000000000355 ) ;
#104 = CARTESIAN_POINT ( 'NONE',  ( 1.500000000000000222, 1.836970198721030181E-16, 1.500000000000000000 ) ) ;
#105 = CARTESIAN_POINT ( 'NONE',  ( 0.000000000000000000, 0.000000000000000000, 1.000000000000000222 ) ) ;
#106 = CARTESIAN_POINT ( 'NONE',  ( -25.00000000000000000, 3.061616997868383043E-15, 0.000000000000000000 ) ) ;
#107 = DIRECTION ( 'NONE',  ( 0.000000000000000000, 0.000000000000000000, 1.000000000000000000 ) ) ;
#108 = ORIENTED_EDGE ( 'NONE', *, *, #78, .T. ) ;
#109 = CIRCLE ( 'NONE', #407, 26.50000000000000355 ) ;
#110 = CARTESIAN_POINT ( 'NONE',  ( 0.000000000000000000, 0.000000000000000000, -0.2500000000000000000 ) ) ;
#111 = EDGE_CURVE ( 'NONE', #229, #312, #233, .T. ) ;
#112 = CARTESIAN_POINT ( 'NONE',  ( 25.00000000000000000, 0.000000000000000000, 0.000000000000000000 ) ) ;
#113 = ORIENTED_EDGE ( 'NONE', *, *, #318, .F. ) ;
#114 = APPROVAL_PERSON_ORGANIZATION ( #191, #442, #158 ) ;
#115 = VECTOR ( 'NONE', #330, 1000.000000000000000 ) ;
#116 = CC_DESIGN_PERSON_AND_ORGANIZATION_ASSIGNMENT ( #46, #51, ( #71 ) ) ;
#117 = DIRECTION ( 'NONE',  ( 0.000000000000000000, 0.000000000000000000, 1.000000000000000000 ) ) ;
#118 = EDGE_LOOP ( 'NONE', ( #95, #154, #249, #295 ) ) ;
#119 = DIRECTION ( 'NONE',  ( 1.000000000000000000, 0.000000000000000000, -0.000000000000000000 ) ) ;
#120 = EDGE_LOOP ( 'NONE', ( #192, #432, #426, #148 ) ) ;
#121 = CARTESIAN_POINT ( 'NONE',  ( -26.50000000000000355, 0.000000000000000000, -0.9999999999999997780 ) ) ;
#122 = VERTEX_POINT ( 'NONE', #303 ) ;
#123 = ADVANCED_FACE ( 'NONE', ( #270 ), #358, .T. ) ;
#124 = CIRCLE ( 'NONE', #18, 25.00000000000000000 ) ;
#125 = DIRECTION ( 'NONE',  ( 1.000000000000000000, 0.000000000000000000, 0.000000000000000000 ) ) ;
#126 = EDGE_LOOP ( 'NONE', ( #255, #396, #247, #438 ) ) ;
#127 = DIRECTION ( 'NONE',  ( -0.000000000000000000, -0.000000000000000000, -1.000000000000000000 ) ) ;
#128 = VERTEX_POINT ( 'NONE', #104 ) ;
#129 = LINE ( 'NONE', #266, #179 ) ;
#130 = CALENDAR_DATE ( 2026, 20, 8 ) ;
#131 = ADVANCED_FACE ( 'NONE', ( #139, #411 ), #173, .T. ) ;
#132 = ORIENTED_EDGE ( 'NONE', *, *, #271, .F. ) ;
#133 = AXIS2_PLACEMENT_3D ( 'NONE', #387, #313, #7 ) ;
#134 = VECTOR ( 'NONE', #150, 1000.000000000000000 ) ;
#135 = FACE_OUTER_BOUND ( 'NONE', #22, .T. ) ;
#136 = DATE_AND_TIME ( #337, #424 ) ;
#137 = CARTESIAN_POINT ( 'NONE',  ( 26.50000000000000355, 0.000000000000000000, 1.000000000000000222 ) ) ;
#138 = EDGE_CURVE ( 'NONE', #99, #190, #346, .T. ) ;
#139 = FACE_OUTER_BOUND ( 'NONE', #48, .T. ) ;
#140 = DATE_AND_TIME ( #269, #184 ) ;
#141 = DIRECTION ( 'NONE',  ( -0.000000000000000000, -0.000000000000000000, -1.000000000000000000 ) ) ;
#142 = CARTESIAN_POINT ( 'NONE',  ( 25.00000000000000000, 0.000000000000000000, -0.2500000000000000000 ) ) ;
#143 = DIRECTION ( 'NONE',  ( 0.000000000000000000, 0.000000000000000000, 1.000000000000000000 ) ) ;
#144 = DIRECTION ( 'NONE',  ( -1.000000000000000000, 0.000000000000000000, 0.000000000000000000 ) ) ;
#145 = EDGE_CURVE ( 'NONE', #367, #253, #419, .T. ) ;
#146 = CIRCLE ( 'NONE', #448, 26.50000000000000355 ) ;
#147 = DIRECTION ( 'NONE',  ( 0.000000000000000000, 0.000000000000000000, 1.000000000000000000 ) ) ;
#148 = ORIENTED_EDGE ( 'NONE', *, *, #138, .T. ) ;
#149 = EDGE_CURVE ( 'NONE', #332, #253, #201, .T. ) ;
#150 = DIRECTION ( 'NONE',  ( -0.000000000000000000, -0.000000000000000000, -1.000000000000000000 ) ) ;
#151 = LOCAL_TIME ( 11, 41, 10.00000000000000000, #433 ) ;
#152 = AXIS2_PLACEMENT_3D ( 'NONE', #165, #289, #227 ) ;
#153 = CARTESIAN_POINT ( 'NONE',  ( 0.000000000000000000, 0.000000000000000000, 1.000000000000000222 ) ) ;
#154 = ORIENTED_EDGE ( 'NONE', *, *, #65, .T. ) ;
#155 = CIRCLE ( 'NONE', #89, 1.500000000000000222 ) ;
#156 = APPROVAL_STATUS ( 'not_yet_approved' ) ;
#157 = ORIENTED_EDGE ( 'NONE', *, *, #286, .T. ) ;
#158 = APPROVAL_ROLE ( '' ) ;
#159 = ORIENTED_EDGE ( 'NONE', *, *, #145, .T. ) ;
#160 = COORDINATED_UNIVERSAL_TIME_OFFSET ( 8, 0, .AHEAD. ) ;
#161 = DIRECTION ( 'NONE',  ( 0.000000000000000000, 0.000000000000000000, 1.000000000000000000 ) ) ;
#162 = EDGE_LOOP ( 'NONE', ( #198, #108, #214, #113 ) ) ;
#163 = ADVANCED_FACE ( 'NONE', ( #202 ), #2, .T. ) ;
#164 = AXIS2_PLACEMENT_3D ( 'NONE', #302, #69, #338 ) ;
#165 = CARTESIAN_POINT ( 'NONE',  ( 0.000000000000000000, 0.000000000000000000, 0.000000000000000000 ) ) ;
#166 = ORIENTED_EDGE ( 'NONE', *, *, #245, .T. ) ;
#167 = CARTESIAN_POINT ( 'NONE',  ( -26.50000000000000355, 0.000000000000000000, 1.000000000000000222 ) ) ;
#168 = CONICAL_SURFACE ( 'NONE', #98, 25.00000000000000000, 1.107148717794091075 ) ;
#169 = DIRECTION ( 'NONE',  ( 0.000000000000000000, 0.000000000000000000, 1.000000000000000000 ) ) ;
#170 = EDGE_CURVE ( 'NONE', #128, #332, #155, .T. ) ;
#171 = PERSON_AND_ORGANIZATION ( #205, #403 ) ;
#172 = CARTESIAN_POINT ( 'NONE',  ( -26.50000000000000355, 0.000000000000000000, -1.500000000000000000 ) ) ;
#173 = PLANE ( 'NONE',  #242 ) ;
#174 = CIRCLE ( 'NONE', #33, 26.50000000000000355 ) ;
#175 = LINE ( 'NONE', #106, #398 ) ;
#176 = FACE_OUTER_BOUND ( 'NONE', #397, .T. ) ;
#177 = FACE_OUTER_BOUND ( 'NONE', #118, .T. ) ;
#178 = ORIENTED_EDGE ( 'NONE', *, *, #1, .F. ) ;
#179 = VECTOR ( 'NONE', #406, 1000.000000000000000 ) ;
#180 = LINE ( 'NONE', #280, #134 ) ;
#181 = VERTEX_POINT ( 'NONE', #167 ) ;
#182 = DIRECTION ( 'NONE',  ( -0.000000000000000000, -0.000000000000000000, -1.000000000000000000 ) ) ;
#183 = FACE_OUTER_BOUND ( 'NONE', #39, .T. ) ;
#184 = LOCAL_TIME ( 11, 41, 10.00000000000000000, #305 ) ;
#185 = AXIS2_PLACEMENT_3D ( 'NONE', #75, #143, #281 ) ;
#186 = DIRECTION ( 'NONE',  ( 0.000000000000000000, 0.000000000000000000, 1.000000000000000000 ) ) ;
#187 = ORIENTED_EDGE ( 'NONE', *, *, #138, .F. ) ;
#188 = AXIS2_PLACEMENT_3D ( 'NONE', #153, #147, #210 ) ;
#189 = DIRECTION ( 'NONE',  ( 0.000000000000000000, 0.000000000000000000, 1.000000000000000000 ) ) ;
#190 = VERTEX_POINT ( 'NONE', #341 ) ;
#191 = PERSON_AND_ORGANIZATION ( #205, #403 ) ;
#192 = ORIENTED_EDGE ( 'NONE', *, *, #435, .F. ) ;
#193 = AXIS2_PLACEMENT_3D ( 'NONE', #400, #369, #380 ) ;
#194 = VERTEX_POINT ( 'NONE', #441 ) ;
#195 = ADVANCED_FACE ( 'NONE', ( #135 ), #268, .F. ) ;
#196 = APPROVAL_STATUS ( 'not_yet_approved' ) ;
#197 = ORIENTED_EDGE ( 'NONE', *, *, #145, .F. ) ;
#198 = ORIENTED_EDGE ( 'NONE', *, *, #252, .T. ) ;
#199 = EDGE_CURVE ( 'NONE', #122, #85, #109, .T. ) ;
#200 = DATE_TIME_ROLE ( 'classification_date' ) ;
#201 = LINE ( 'NONE', #209, #70 ) ;
#202 = FACE_OUTER_BOUND ( 'NONE', #120, .T. ) ;
#203 = DIRECTION ( 'NONE',  ( 0.000000000000000000, 0.000000000000000000, 1.000000000000000000 ) ) ;
#204 = DIRECTION ( 'NONE',  ( 0.000000000000000000, 0.000000000000000000, 1.000000000000000000 ) ) ;
#205 = PERSON ( 'æœª', 'æœª', 'æœª', ('æœª'), ('æœª'), ('æœª') ) ;
#206 = LOCAL_TIME ( 11, 41, 10.00000000000000000, #294 ) ;
#207 = AXIS2_PLACEMENT_3D ( 'NONE', #436, #189, #363 ) ;
#208 = EDGE_CURVE ( 'NONE', #253, #367, #267, .T. ) ;
#209 = CARTESIAN_POINT ( 'NONE',  ( -1.500000000000000222, 0.000000000000000000, 1.500000000000000000 ) ) ;
#210 = DIRECTION ( 'NONE',  ( 0.000000000000000000, 1.000000000000000000, 0.000000000000000000 ) ) ;
#211 = ORIENTED_EDGE ( 'NONE', *, *, #208, .F. ) ;
#212 = ADVANCED_FACE ( 'NONE', ( #177 ), #168, .T. ) ;
#213 = DIRECTION ( 'NONE',  ( 0.000000000000000000, 0.000000000000000000, 1.000000000000000000 ) ) ;
#214 = ORIENTED_EDGE ( 'NONE', *, *, #10, .F. ) ;
#215 = CARTESIAN_POINT ( 'NONE',  ( 25.00000000000000000, 0.000000000000000000, 0.2500000000000000000 ) ) ;
#216 = ORIENTED_EDGE ( 'NONE', *, *, #271, .T. ) ;
#217 = FACE_OUTER_BOUND ( 'NONE', #228, .T. ) ;
#218 = AXIS2_PLACEMENT_3D ( 'NONE', #30, #169, #66 ) ;
#219 = DIRECTION ( 'NONE',  ( 0.000000000000000000, 1.000000000000000000, 0.000000000000000000 ) ) ;
#220 = EDGE_LOOP ( 'NONE', ( #6, #353 ) ) ;
#221 = APPLICATION_CONTEXT ( 'configuration controlled 3d designs of mechanical parts and assemblies' ) ;
#222 = AXIS2_PLACEMENT_3D ( 'NONE', #415, #230, #308 ) ;
#223 = APPLICATION_PROTOCOL_DEFINITION ( 'international standard', 'config_control_design', 1994, #244 ) ;
#224 = FACE_OUTER_BOUND ( 'NONE', #392, .T. ) ;
#225 = EDGE_CURVE ( 'NONE', #181, #312, #336, .T. ) ;
#226 = ORIENTED_EDGE ( 'NONE', *, *, #355, .T. ) ;
#227 = DIRECTION ( 'NONE',  ( 1.000000000000000000, 0.000000000000000000, 0.000000000000000000 ) ) ;
#228 = EDGE_LOOP ( 'NONE', ( #187, #55 ) ) ;
#229 = VERTEX_POINT ( 'NONE', #215 ) ;
#230 = DIRECTION ( 'NONE',  ( 0.000000000000000000, 0.000000000000000000, 1.000000000000000000 ) ) ;
#231 = COORDINATED_UNIVERSAL_TIME_OFFSET ( 8, 0, .AHEAD. ) ;
#232 = CONICAL_SURFACE ( 'NONE', #40, 25.00000000000000000, 1.107148717794091075 ) ;
#233 = LINE ( 'NONE', #137, #83 ) ;
#234 = DIRECTION ( 'NONE',  ( -0.000000000000000000, -0.000000000000000000, -1.000000000000000000 ) ) ;
#235 = ADVANCED_FACE ( 'NONE', ( #309 ), #42, .F. ) ;
#236 = PRODUCT_DEFINITION_SHAPE ( 'NONE', 'NONE',  #71 ) ;
#237 = CARTESIAN_POINT ( 'NONE',  ( -25.00000000000000000, 0.000000000000000000, -0.2500000000000000000 ) ) ;
#238 = EDGE_CURVE ( 'NONE', #386, #99, #180, .T. ) ;
#239 = CARTESIAN_POINT ( 'NONE',  ( 0.000000000000000000, 0.000000000000000000, 1.500000000000000000 ) ) ;
#240 = CC_DESIGN_SECURITY_CLASSIFICATION ( #439, ( #12 ) ) ;
#241 = CARTESIAN_POINT ( 'NONE',  ( 0.000000000000000000, 0.000000000000000000, -0.2500000000000000000 ) ) ;
#242 = AXIS2_PLACEMENT_3D ( 'NONE', #273, #449, #102 ) ;
#243 = ORIENTED_EDGE ( 'NONE', *, *, #208, .T. ) ;
#244 = APPLICATION_CONTEXT ( 'configuration controlled 3d designs of mechanical parts and assemblies' ) ;
#245 = EDGE_CURVE ( 'NONE', #386, #25, #146, .T. ) ;
#246 = LINE ( 'NONE', #248, #321 ) ;
#247 = ORIENTED_EDGE ( 'NONE', *, *, #111, .T. ) ;
#248 = CARTESIAN_POINT ( 'NONE',  ( -26.50000000000000355, 3.245314017740486554E-15, 1.000000000000000222 ) ) ;
#249 = ORIENTED_EDGE ( 'NONE', *, *, #372, .T. ) ;
#250 = AXIS2_PLACEMENT_3D ( 'NONE', #9, #117, #251 ) ;
#251 = DIRECTION ( 'NONE',  ( 0.000000000000000000, 1.000000000000000000, 0.000000000000000000 ) ) ;
#252 = EDGE_CURVE ( 'NONE', #58, #76, #440, .T. ) ;
#253 = VERTEX_POINT ( 'NONE', #423 ) ;
#254 = DIRECTION ( 'NONE',  ( 0.000000000000000000, 0.000000000000000000, 1.000000000000000000 ) ) ;
#255 = ORIENTED_EDGE ( 'NONE', *, *, #286, .F. ) ;
#256 = APPROVAL_ROLE ( '' ) ;
#257 = ORIENTED_EDGE ( 'NONE', *, *, #111, .F. ) ;
#258 = LINE ( 'NONE', #23, #264 ) ;
#259 = ORIENTED_EDGE ( 'NONE', *, *, #5, .F. ) ;
#260 = EDGE_CURVE ( 'NONE', #76, #58, #425, .T. ) ;
#261 = CARTESIAN_POINT ( 'NONE',  ( 1.500000000000000222, 1.836970198721030181E-16, 1.500000000000000000 ) ) ;
#262 = DIRECTION ( 'NONE',  ( -1.000000000000000000, 0.000000000000000000, 0.000000000000000000 ) ) ;
#263 = CARTESIAN_POINT ( 'NONE',  ( 26.50000000000000355, 3.245314017740486554E-15, -0.9999999999999997780 ) ) ;
#264 = VECTOR ( 'NONE', #92, 1000.000000000000000 ) ;
#265 = CALENDAR_DATE ( 2026, 20, 8 ) ;
#266 = CARTESIAN_POINT ( 'NONE',  ( -26.50000000000000355, 0.000000000000000000, 1.500000000000000000 ) ) ;
#267 = CIRCLE ( 'NONE', #27, 1.500000000000000222 ) ;
#268 = CYLINDRICAL_SURFACE ( 'NONE', #14, 1.500000000000000222 ) ;
#269 = CALENDAR_DATE ( 2026, 20, 8 ) ;
#270 = FACE_OUTER_BOUND ( 'NONE', #126, .T. ) ;
#271 = EDGE_CURVE ( 'NONE', #85, #312, #391, .T. ) ;
#272 = AXIS2_PLACEMENT_3D ( 'NONE', #364, #373, #91 ) ;
#273 = CARTESIAN_POINT ( 'NONE',  ( 0.000000000000000000, 0.000000000000000000, 1.500000000000000000 ) ) ;
#274 = ADVANCED_FACE ( 'NONE', ( #217, #287 ), #357, .F. ) ;
#275 = PERSON_AND_ORGANIZATION_ROLE ( 'creator' ) ;
#276 = DIRECTION ( 'NONE',  ( 1.000000000000000000, 0.000000000000000000, 0.000000000000000000 ) ) ;
#277 = FACE_OUTER_BOUND ( 'NONE', #82, .T. ) ;
#278 = CARTESIAN_POINT ( 'NONE',  ( 26.50000000000000355, 3.245314017740486554E-15, 1.500000000000000000 ) ) ;
#279 = CC_DESIGN_DATE_AND_TIME_ASSIGNMENT ( #136, #200, ( #439 ) ) ;
#280 = CARTESIAN_POINT ( 'NONE',  ( -26.50000000000000355, 0.000000000000000000, 1.500000000000000000 ) ) ;
#281 = DIRECTION ( 'NONE',  ( 1.000000000000000000, 0.000000000000000000, 0.000000000000000000 ) ) ;
#282 = ORIENTED_EDGE ( 'NONE', *, *, #260, .F. ) ;
#283 = CARTESIAN_POINT ( 'NONE',  ( 0.000000000000000000, 0.000000000000000000, -0.9999999999999997780 ) ) ;
#284 = APPROVAL_PERSON_ORGANIZATION ( #171, #323, #333 ) ;
#285 = AXIS2_PLACEMENT_3D ( 'NONE', #77, #254, #84 ) ;
#286 = EDGE_CURVE ( 'NONE', #194, #181, #246, .T. ) ;
#287 = FACE_BOUND ( 'NONE', #390, .T. ) ;
#288 = ORIENTED_EDGE ( 'NONE', *, *, #199, .F. ) ;
#289 = DIRECTION ( 'NONE',  ( 0.000000000000000000, 0.000000000000000000, 1.000000000000000000 ) ) ;
#290 = DIRECTION ( 'NONE',  ( 0.000000000000000000, 0.000000000000000000, 1.000000000000000000 ) ) ;
#291 = ADVANCED_FACE ( 'NONE', ( #183 ), #3, .T. ) ;
#292 = CARTESIAN_POINT ( 'NONE',  ( 0.000000000000000000, 0.000000000000000000, -0.9999999999999997780 ) ) ;
#293 = CARTESIAN_POINT ( 'NONE',  ( 0.000000000000000000, 0.000000000000000000, 0.2500000000000000000 ) ) ;
#294 = COORDINATED_UNIVERSAL_TIME_OFFSET ( 8, 0, .AHEAD. ) ;
#295 = ORIENTED_EDGE ( 'NONE', *, *, #37, .F. ) ;
#296 = DIRECTION ( 'NONE',  ( -1.000000000000000000, 0.000000000000000000, 0.000000000000000000 ) ) ;
#297 = DIRECTION ( 'NONE',  ( 1.000000000000000000, 0.000000000000000000, 0.000000000000000000 ) ) ;
#298 = ORIENTED_EDGE ( 'NONE', *, *, #238, .F. ) ;
#299 = APPROVAL_DATE_TIME ( #140, #323 ) ;
#300 = CARTESIAN_POINT ( 'NONE',  ( 25.00000000000000000, 3.061616997868383043E-15, -0.2500000000000000000 ) ) ;
#301 = PERSON_AND_ORGANIZATION ( #205, #403 ) ;
#302 = CARTESIAN_POINT ( 'NONE',  ( 0.000000000000000000, 0.000000000000000000, 1.500000000000000000 ) ) ;
#303 = CARTESIAN_POINT ( 'NONE',  ( -26.50000000000000355, 0.000000000000000000, 1.500000000000000000 ) ) ;
#304 = PRODUCT_RELATED_PRODUCT_CATEGORY ( 'detail', '', ( #381 ) ) ;
#305 = COORDINATED_UNIVERSAL_TIME_OFFSET ( 8, 0, .AHEAD. ) ;
#306 = VECTOR ( 'NONE', #389, 1000.000000000000000 ) ;
#307 = CARTESIAN_POINT ( 'NONE',  ( 26.50000000000000355, 3.245314017740486554E-15, 1.500000000000000000 ) ) ;
#308 = DIRECTION ( 'NONE',  ( 1.000000000000000000, 0.000000000000000000, 0.000000000000000000 ) ) ;
#309 = FACE_OUTER_BOUND ( 'NONE', #429, .T. ) ;
#310 = CLOSED_SHELL ( 'NONE', ( #212, #401, #335, #235, #339, #45, #291, #163, #131, #274, #195, #123, #81, #29 ) ) ;
#311 = DIRECTION ( 'NONE',  ( 0.000000000000000000, 0.000000000000000000, 1.000000000000000000 ) ) ;
#312 = VERTEX_POINT ( 'NONE', #385 ) ;
#313 = DIRECTION ( 'NONE',  ( -0.000000000000000000, -0.000000000000000000, -1.000000000000000000 ) ) ;
#314 = ORIENTED_EDGE ( 'NONE', *, *, #355, .F. ) ;
#315 = EDGE_CURVE ( 'NONE', #190, #99, #382, .T. ) ;
#316 = DIRECTION ( 'NONE',  ( 0.000000000000000000, 1.000000000000000000, 0.000000000000000000 ) ) ;
#317 = ORIENTED_EDGE ( 'NONE', *, *, #31, .T. ) ;
#318 = EDGE_CURVE ( 'NONE', #58, #229, #11, .T. ) ;
#319 = DIRECTION ( 'NONE',  ( 0.000000000000000000, 0.000000000000000000, 1.000000000000000000 ) ) ;
#320 = CC_DESIGN_APPROVAL ( #442, ( #71 ) ) ;
#321 = VECTOR ( 'NONE', #36, 1000.000000000000114 ) ;
#322 = DATE_TIME_ROLE ( 'creation_date' ) ;
#323 = APPROVAL ( #378, 'æœª' ) ;
#324 = CARTESIAN_POINT ( 'NONE',  ( 0.000000000000000000, 0.000000000000000000, -0.2500000000000000000 ) ) ;
#325 = DIRECTION ( 'NONE',  ( 0.000000000000000000, 1.000000000000000000, 0.000000000000000000 ) ) ;
#326 = ORIENTED_EDGE ( 'NONE', *, *, #418, .F. ) ;
#327 = CIRCLE ( 'NONE', #272, 25.00000000000000000 ) ;
#328 = CARTESIAN_POINT ( 'NONE',  ( 0.000000000000000000, 0.000000000000000000, 0.000000000000000000 ) ) ;
#329 = ORIENTED_EDGE ( 'NONE', *, *, #149, .T. ) ;
#330 = DIRECTION ( 'NONE',  ( -0.000000000000000000, -0.000000000000000000, -1.000000000000000000 ) ) ;
#331 = DIRECTION ( 'NONE',  ( 0.000000000000000000, 1.000000000000000000, 0.000000000000000000 ) ) ;
#332 = VERTEX_POINT ( 'NONE', #422 ) ;
#333 = APPROVAL_ROLE ( '' ) ;
#334 = FACE_OUTER_BOUND ( 'NONE', #8, .T. ) ;
#335 = ADVANCED_FACE ( 'NONE', ( #427 ), #344, .T. ) ;
#336 = CIRCLE ( 'NONE', #188, 26.50000000000000355 ) ;
#337 = CALENDAR_DATE ( 2026, 20, 8 ) ;
#338 = DIRECTION ( 'NONE',  ( -1.000000000000000000, 0.000000000000000000, 0.000000000000000000 ) ) ;
#339 = ADVANCED_FACE ( 'NONE', ( #176 ), #416, .T. ) ;
#340 = VECTOR ( 'NONE', #413, 1000.000000000000114 ) ;
#341 = CARTESIAN_POINT ( 'NONE',  ( 26.50000000000000355, 3.245314017740486554E-15, -1.500000000000000000 ) ) ;
#342 = PERSON_AND_ORGANIZATION ( #205, #403 ) ;
#343 =( GEOMETRIC_REPRESENTATION_CONTEXT ( 3 ) GLOBAL_UNCERTAINTY_ASSIGNED_CONTEXT ( ( #74 ) ) GLOBAL_UNIT_ASSIGNED_CONTEXT ( ( #90, #366, #368 ) ) REPRESENTATION_CONTEXT ( 'NONE', 'WORKASPACE' ) );
#344 = CONICAL_SURFACE ( 'NONE', #285, 26.50000000000000355, 1.107148717794090631 ) ;
#345 = DIRECTION ( 'NONE',  ( 0.000000000000000000, 0.000000000000000000, 1.000000000000000000 ) ) ;
#346 = CIRCLE ( 'NONE', #49, 26.50000000000000355 ) ;
#347 = DIRECTION ( 'NONE',  ( 1.000000000000000000, 0.000000000000000000, 0.000000000000000000 ) ) ;
#348 = DIRECTION ( 'NONE',  ( -0.000000000000000000, -0.000000000000000000, -1.000000000000000000 ) ) ;
#349 = ORIENTED_EDGE ( 'NONE', *, *, #260, .T. ) ;
#350 = DESIGN_CONTEXT ( 'detailed design', #221, 'design' ) ;
#351 = AXIS2_PLACEMENT_3D ( 'NONE', #59, #290, #297 ) ;
#352 = CARTESIAN_POINT ( 'NONE',  ( 0.000000000000000000, 0.000000000000000000, 1.500000000000000000 ) ) ;
#353 = ORIENTED_EDGE ( 'NONE', *, *, #170, .F. ) ;
#354 = CARTESIAN_POINT ( 'NONE',  ( 0.000000000000000000, 0.000000000000000000, 1.500000000000000000 ) ) ;
#355 = EDGE_CURVE ( 'NONE', #128, #367, #395, .T. ) ;
#356 = ORIENTED_EDGE ( 'NONE', *, *, #435, .T. ) ;
#357 = PLANE ( 'NONE',  #68 ) ;
#358 = CONICAL_SURFACE ( 'NONE', #365, 26.50000000000000355, 1.107148717794090631 ) ;
#359 = ORIENTED_EDGE ( 'NONE', *, *, #418, .T. ) ;
#360 = APPROVAL_DATE_TIME ( #17, #442 ) ;
#361 = ORIENTED_EDGE ( 'NONE', *, *, #37, .T. ) ;
#362 = CC_DESIGN_PERSON_AND_ORGANIZATION_ASSIGNMENT ( #376, #275, ( #12 ) ) ;
#363 = DIRECTION ( 'NONE',  ( 0.000000000000000000, 1.000000000000000000, 0.000000000000000000 ) ) ;
#364 = CARTESIAN_POINT ( 'NONE',  ( 0.000000000000000000, 0.000000000000000000, 0.2500000000000000000 ) ) ;
#365 = AXIS2_PLACEMENT_3D ( 'NONE', #105, #204, #276 ) ;
#366 =( NAMED_UNIT ( * ) PLANE_ANGLE_UNIT ( ) SI_UNIT ( $, .RADIAN. ) );
#367 = VERTEX_POINT ( 'NONE', #86 ) ;
#368 =( NAMED_UNIT ( * ) SI_UNIT ( $, .STERADIAN. ) SOLID_ANGLE_UNIT ( ) );
#369 = DIRECTION ( 'NONE',  ( 0.000000000000000000, 0.000000000000000000, 1.000000000000000000 ) ) ;
#370 = AXIS2_PLACEMENT_3D ( 'NONE', #72, #127, #296 ) ;
#371 = ORIENTED_EDGE ( 'NONE', *, *, #315, .T. ) ;
#372 = EDGE_CURVE ( 'NONE', #25, #386, #174, .T. ) ;
#373 = DIRECTION ( 'NONE',  ( 0.000000000000000000, 0.000000000000000000, 1.000000000000000000 ) ) ;
#374 = DIRECTION ( 'NONE',  ( -0.000000000000000000, -0.000000000000000000, -1.000000000000000000 ) ) ;
#375 = CARTESIAN_POINT ( 'NONE',  ( 0.000000000000000000, 0.000000000000000000, -1.500000000000000000 ) ) ;
#376 = PERSON_AND_ORGANIZATION ( #205, #403 ) ;
#377 = DIRECTION ( 'NONE',  ( -1.000000000000000000, 0.000000000000000000, 0.000000000000000000 ) ) ;
#378 = APPROVAL_STATUS ( 'not_yet_approved' ) ;
#379 = MANIFOLD_SOLID_BREP ( '\X2\52079664\X0\-\X2\626b63cf\X0\1', #310 ) ;
#380 = DIRECTION ( 'NONE',  ( 1.000000000000000000, 0.000000000000000000, 0.000000000000000000 ) ) ;
#381 = PRODUCT ( '\X2\4e8c7ea759275e268f6e\X0\', '\X2\4e8c7ea759275e268f6e\X0\', '', ( #54 ) ) ;
#382 = CIRCLE ( 'NONE', #185, 26.50000000000000355 ) ;
#383 = LINE ( 'NONE', #300, #340 ) ;
#384 = AXIS2_PLACEMENT_3D ( 'NONE', #412, #234, #377 ) ;
#385 = CARTESIAN_POINT ( 'NONE',  ( 26.50000000000000355, 3.245314017740486554E-15, 1.000000000000000222 ) ) ;
#386 = VERTEX_POINT ( 'NONE', #121 ) ;
#387 = CARTESIAN_POINT ( 'NONE',  ( 0.000000000000000000, 0.000000000000000000, 1.500000000000000000 ) ) ;
#388 = CC_DESIGN_DATE_AND_TIME_ASSIGNMENT ( #405, #322, ( #71 ) ) ;
#389 = DIRECTION ( 'NONE',  ( 0.000000000000000000, 0.000000000000000000, 1.000000000000000000 ) ) ;
#390 = EDGE_LOOP ( 'NONE', ( #243, #159 ) ) ;
#391 = LINE ( 'NONE', #278, #404 ) ;
#392 = EDGE_LOOP ( 'NONE', ( #87, #282, #361, #166 ) ) ;
#393 = ADVANCED_BREP_SHAPE_REPRESENTATION ( '\X2\4e8c7ea759275e268f6e\X0\', ( #379, #47 ), #343 ) ;
#394 = CARTESIAN_POINT ( 'NONE',  ( 0.000000000000000000, 0.000000000000000000, -1.500000000000000000 ) ) ;
#395 = LINE ( 'NONE', #261, #115 ) ;
#396 = ORIENTED_EDGE ( 'NONE', *, *, #1, .T. ) ;
#397 = EDGE_LOOP ( 'NONE', ( #402, #356, #371, #298 ) ) ;
#398 = VECTOR ( 'NONE', #26, 1000.000000000000000 ) ;
#399 = FACE_OUTER_BOUND ( 'NONE', #162, .T. ) ;
#400 = CARTESIAN_POINT ( 'NONE',  ( 0.000000000000000000, 0.000000000000000000, 1.500000000000000000 ) ) ;
#401 = ADVANCED_FACE ( 'NONE', ( #399 ), #94, .T. ) ;
#402 = ORIENTED_EDGE ( 'NONE', *, *, #372, .F. ) ;
#403 = ORGANIZATION ( 'æœª', 'æœª', '' ) ;
#404 = VECTOR ( 'NONE', #80, 1000.000000000000000 ) ;
#405 = DATE_AND_TIME ( #265, #32 ) ;
#406 = DIRECTION ( 'NONE',  ( -0.000000000000000000, -0.000000000000000000, -1.000000000000000000 ) ) ;
#407 = AXIS2_PLACEMENT_3D ( 'NONE', #354, #311, #41 ) ;
#408 = CARTESIAN_POINT ( 'NONE',  ( 0.000000000000000000, 0.000000000000000000, 1.500000000000000000 ) ) ;
#409 = CC_DESIGN_PERSON_AND_ORGANIZATION_ASSIGNMENT ( #301, #34, ( #12 ) ) ;
#410 = SHAPE_DEFINITION_REPRESENTATION ( #236, #393 ) ;
#411 = FACE_BOUND ( 'NONE', #220, .T. ) ;
#412 = CARTESIAN_POINT ( 'NONE',  ( 0.000000000000000000, 0.000000000000000000, 1.500000000000000000 ) ) ;
#413 = DIRECTION ( 'NONE',  ( 0.8944271909999160775, 1.095357396528405619E-16, -0.4472135954999573726 ) ) ;
#414 = DATE_AND_TIME ( #61, #206 ) ;
#415 = CARTESIAN_POINT ( 'NONE',  ( 0.000000000000000000, 0.000000000000000000, -1.500000000000000000 ) ) ;
#416 = CYLINDRICAL_SURFACE ( 'NONE', #370, 26.50000000000000355 ) ;
#417 = ORIENTED_EDGE ( 'NONE', *, *, #20, .T. ) ;
#418 = EDGE_CURVE ( 'NONE', #312, #181, #97, .T. ) ;
#419 = CIRCLE ( 'NONE', #222, 1.500000000000000222 ) ;
#420 = DIRECTION ( 'NONE',  ( 0.000000000000000000, 0.000000000000000000, 1.000000000000000000 ) ) ;
#421 = CC_DESIGN_PERSON_AND_ORGANIZATION_ASSIGNMENT ( #428, #430, ( #381 ) ) ;
#422 = CARTESIAN_POINT ( 'NONE',  ( -1.500000000000000222, 0.000000000000000000, 1.500000000000000000 ) ) ;
#423 = CARTESIAN_POINT ( 'NONE',  ( -1.500000000000000222, 0.000000000000000000, -1.500000000000000000 ) ) ;
#424 = LOCAL_TIME ( 11, 41, 10.00000000000000000, #231 ) ;
#425 = CIRCLE ( 'NONE', #250, 25.00000000000000000 ) ;
#426 = ORIENTED_EDGE ( 'NONE', *, *, #238, .T. ) ;
#427 = FACE_OUTER_BOUND ( 'NONE', #437, .T. ) ;
#428 = PERSON_AND_ORGANIZATION ( #205, #403 ) ;
#429 = EDGE_LOOP ( 'NONE', ( #317, #226, #211, #434 ) ) ;
#430 = PERSON_AND_ORGANIZATION_ROLE ( 'design_owner' ) ;
#431 = CIRCLE ( 'NONE', #193, 1.500000000000000222 ) ;
#432 = ORIENTED_EDGE ( 'NONE', *, *, #245, .F. ) ;
#433 = COORDINATED_UNIVERSAL_TIME_OFFSET ( 8, 0, .AHEAD. ) ;
#434 = ORIENTED_EDGE ( 'NONE', *, *, #149, .F. ) ;
#435 = EDGE_CURVE ( 'NONE', #25, #190, #258, .T. ) ;
#436 = CARTESIAN_POINT ( 'NONE',  ( 0.000000000000000000, 0.000000000000000000, 1.000000000000000222 ) ) ;
#437 = EDGE_LOOP ( 'NONE', ( #93, #157, #326, #257 ) ) ;
#438 = ORIENTED_EDGE ( 'NONE', *, *, #225, .F. ) ;
#439 = SECURITY_CLASSIFICATION ( '', '', #100 ) ;
#440 = CIRCLE ( 'NONE', #13, 25.00000000000000000 ) ;
#441 = CARTESIAN_POINT ( 'NONE',  ( -25.00000000000000000, 3.153465507804434798E-15, 0.2500000000000000000 ) ) ;
#442 = APPROVAL ( #196, 'æœª' ) ;
#443 = AXIS2_PLACEMENT_3D ( 'NONE', #352, #182, #144 ) ;
#444 = APPROVAL_DATE_TIME ( #414, #52 ) ;
#445 = DIRECTION ( 'NONE',  ( 0.8944271909999158554, 0.000000000000000000, 0.4472135954999577612 ) ) ;
#446 = LINE ( 'NONE', #237, #447 ) ;
#447 = VECTOR ( 'NONE', #101, 1000.000000000000114 ) ;
#448 = AXIS2_PLACEMENT_3D ( 'NONE', #283, #107, #219 ) ;
#449 = DIRECTION ( 'NONE',  ( 0.000000000000000000, 0.000000000000000000, 1.000000000000000000 ) ) ;
ENDSEC;
END-ISO-10303-21;
