ISO-10303-21;
HEADER;
FILE_DESCRIPTION (( 'STEP AP203' ),
    '1' );
FILE_NAME ('ºÐ×Ó¿ÛËø.STEP',
    '2026-08-20T06:14:09',
    ( '' ),
    ( '' ),
    'SwSTEP 2.0',
    'SolidWorks 2026',
    '' );
FILE_SCHEMA (( 'CONFIG_CONTROL_DESIGN' ));
ENDSEC;

DATA;
#1 = ORIENTED_EDGE ( 'NONE', *, *, #839, .F. ) ;
#2 = DIRECTION ( 'NONE',  ( -0.000000000000000000, 0.8479983040050880216, -0.5299989400031799303 ) ) ;
#3 = EDGE_CURVE ( 'NONE', #1059, #1245, #649, .T. ) ;
#4 = DIRECTION ( 'NONE',  ( 1.000000000000000000, 0.000000000000000000, -0.000000000000000000 ) ) ;
#5 = ORIENTED_EDGE ( 'NONE', *, *, #752, .F. ) ;
#6 = CARTESIAN_POINT ( 'NONE',  ( 12.25000000000000000, 2.999999999999999556, 0.000000000000000000 ) ) ;
#7 = ORIENTED_EDGE ( 'NONE', *, *, #155, .T. ) ;
#8 = LINE ( 'NONE', #721, #60 ) ;
#9 = DIRECTION ( 'NONE',  ( 1.000000000000000000, 0.000000000000000000, 0.000000000000000000 ) ) ;
#10 = EDGE_CURVE ( 'NONE', #1170, #242, #732, .T. ) ;
#11 = ORIENTED_EDGE ( 'NONE', *, *, #483, .F. ) ;
#12 = CARTESIAN_POINT ( 'NONE',  ( 10.74999999999999822, -14.10465650440566954, -2.000000000000000000 ) ) ;
#13 = VERTEX_POINT ( 'NONE', #363 ) ;
#14 = CARTESIAN_POINT ( 'NONE',  ( 6.999999999999999112, -0.9999999999999970024, -5.999999999999999112 ) ) ;
#15 = VECTOR ( 'NONE', #50, 1000.000000000000114 ) ;
#16 = VECTOR ( 'NONE', #1324, 1000.000000000000000 ) ;
#17 = AXIS2_PLACEMENT_3D ( 'NONE', #286, #776, #380 ) ;
#18 = SECURITY_CLASSIFICATION ( '', '', #960 ) ;
#19 = CARTESIAN_POINT ( 'NONE',  ( 16.10000000000000142, -4.104656504405670425, -11.00000000000000000 ) ) ;
#20 = ORIENTED_EDGE ( 'NONE', *, *, #248, .T. ) ;
#21 = CYLINDRICAL_SURFACE ( 'NONE', #1289, 2.500000000000000444 ) ;
#22 = EDGE_CURVE ( 'NONE', #1201, #32, #766, .T. ) ;
#23 = EDGE_LOOP ( 'NONE', ( #1034, #635, #414, #481 ) ) ;
#24 = DIRECTION ( 'NONE',  ( -0.000000000000000000, -1.000000000000000000, -0.000000000000000000 ) ) ;
#25 = DIRECTION ( 'NONE',  ( -1.000000000000000000, 0.000000000000000000, -0.000000000000000000 ) ) ;
#26 = ORIENTED_EDGE ( 'NONE', *, *, #229, .T. ) ;
#27 = DIRECTION ( 'NONE',  ( 0.000000000000000000, 0.000000000000000000, -1.000000000000000000 ) ) ;
#28 = ORIENTED_EDGE ( 'NONE', *, *, #914, .T. ) ;
#29 = DIRECTION ( 'NONE',  ( -1.000000000000000000, 0.000000000000000000, -0.000000000000000000 ) ) ;
#30 = DATE_AND_TIME ( #864, #856 ) ;
#31 = LINE ( 'NONE', #222, #1218 ) ;
#32 = VERTEX_POINT ( 'NONE', #881 ) ;
#33 = CARTESIAN_POINT ( 'NONE',  ( 9.000000000000001776, -12.10465650440567309, -1.999999999999999112 ) ) ;
#34 = ORIENTED_EDGE ( 'NONE', *, *, #1322, .T. ) ;
#35 = CARTESIAN_POINT ( 'NONE',  ( 1.000000000000000000, 0.000000000000000000, 0.000000000000000000 ) ) ;
#36 = AXIS2_PLACEMENT_3D ( 'NONE', #716, #592, #795 ) ;
#37 = EDGE_CURVE ( 'NONE', #332, #1085, #169, .T. ) ;
#38 = VECTOR ( 'NONE', #770, 1000.000000000000000 ) ;
#39 = PERSON_AND_ORGANIZATION ( #315, #600 ) ;
#40 = DIRECTION ( 'NONE',  ( -1.000000000000000000, 1.346834996876403308E-16, 0.000000000000000000 ) ) ;
#41 = AXIS2_PLACEMENT_3D ( 'NONE', #318, #727, #401 ) ;
#42 =( GEOMETRIC_REPRESENTATION_CONTEXT ( 3 ) GLOBAL_UNCERTAINTY_ASSIGNED_CONTEXT ( ( #265 ) ) GLOBAL_UNIT_ASSIGNED_CONTEXT ( ( #383, #1198, #671 ) ) REPRESENTATION_CONTEXT ( 'NONE', 'WORKASPACE' ) );
#43 = ORIENTED_EDGE ( 'NONE', *, *, #597, .F. ) ;
#44 = CARTESIAN_POINT ( 'NONE',  ( -12.25000000000000000, -2.999999999999999556, 10.00000000000000000 ) ) ;
#45 = EDGE_LOOP ( 'NONE', ( #455, #356 ) ) ;
#46 = DIRECTION ( 'NONE',  ( 1.000000000000000000, -1.613696256722611405E-16, 0.000000000000000000 ) ) ;
#47 = APPLICATION_PROTOCOL_DEFINITION ( 'international standard', 'config_control_design', 1994, #251 ) ;
#48 = EDGE_CURVE ( 'NONE', #840, #589, #377, .T. ) ;
#49 = PLANE ( 'NONE',  #320 ) ;
#50 = DIRECTION ( 'NONE',  ( 9.523561594306672852E-17, 0.7071067811865474617, -0.7071067811865474617 ) ) ;
#51 = CARTESIAN_POINT ( 'NONE',  ( 10.74999999999999822, -12.10465650440566243, 6.500000000000000000 ) ) ;
#52 = VERTEX_POINT ( 'NONE', #1190 ) ;
#53 = DIRECTION ( 'NONE',  ( 0.000000000000000000, 0.000000000000000000, 1.000000000000000000 ) ) ;
#54 = PERSON_AND_ORGANIZATION ( #315, #600 ) ;
#55 = DIRECTION ( 'NONE',  ( -0.000000000000000000, -0.000000000000000000, -1.000000000000000000 ) ) ;
#56 = DIRECTION ( 'NONE',  ( -1.210272192541958616E-16, 1.630036944661846601E-32, 1.000000000000000000 ) ) ;
#57 = EDGE_CURVE ( 'NONE', #1015, #1269, #872, .T. ) ;
#58 = ORIENTED_EDGE ( 'NONE', *, *, #67, .T. ) ;
#59 = FACE_OUTER_BOUND ( 'NONE', #565, .T. ) ;
#60 = VECTOR ( 'NONE', #826, 1000.000000000000000 ) ;
#61 = AXIS2_PLACEMENT_3D ( 'NONE', #274, #1213, #1208 ) ;
#62 = DIRECTION ( 'NONE',  ( 0.000000000000000000, -0.000000000000000000, 1.000000000000000000 ) ) ;
#63 = DIRECTION ( 'NONE',  ( -1.000000000000000000, 0.000000000000000000, 0.000000000000000000 ) ) ;
#64 = LOCAL_TIME ( 14, 14, 9.000000000000000000, #135 ) ;
#65 = ORIENTED_EDGE ( 'NONE', *, *, #309, .F. ) ;
#66 = DIRECTION ( 'NONE',  ( -0.000000000000000000, 0.000000000000000000, -1.000000000000000000 ) ) ;
#67 = EDGE_CURVE ( 'NONE', #1134, #52, #582, .T. ) ;
#68 = DIRECTION ( 'NONE',  ( 0.000000000000000000, 0.000000000000000000, -1.000000000000000000 ) ) ;
#69 = DIRECTION ( 'NONE',  ( 1.000000000000000000, 0.000000000000000000, 1.210272192541958616E-16 ) ) ;
#70 = ORIENTED_EDGE ( 'NONE', *, *, #1136, .T. ) ;
#71 = DIRECTION ( 'NONE',  ( -1.000000000000000000, 1.346834996876403062E-16, -0.000000000000000000 ) ) ;
#72 = CARTESIAN_POINT ( 'NONE',  ( -12.25000000000000000, 7.500961644777537685E-16, 10.00000000000000000 ) ) ;
#73 = EDGE_CURVE ( 'NONE', #1059, #1134, #570, .T. ) ;
#74 = DIRECTION ( 'NONE',  ( 1.000000000000000000, 0.000000000000000000, -0.000000000000000000 ) ) ;
#75 = VERTEX_POINT ( 'NONE', #970 ) ;
#76 = LINE ( 'NONE', #486, #725 ) ;
#77 = LINE ( 'NONE', #460, #557 ) ;
#78 = EDGE_CURVE ( 'NONE', #298, #718, #894, .T. ) ;
#79 = CYLINDRICAL_SURFACE ( 'NONE', #1001, 2.500000000000000444 ) ;
#80 = CIRCLE ( 'NONE', #849, 0.9999999999999991118 ) ;
#81 = VECTOR ( 'NONE', #200, 1000.000000000000000 ) ;
#82 = ORIENTED_EDGE ( 'NONE', *, *, #858, .T. ) ;
#83 = CARTESIAN_POINT ( 'NONE',  ( -9.000000000000001776, -4.104656504405667761, -7.000000000000001776 ) ) ;
#84 = AXIS2_PLACEMENT_3D ( 'NONE', #1302, #63, #583 ) ;
#85 = CARTESIAN_POINT ( 'NONE',  ( -10.75000000000000000, -11.10465650440566776, 6.500000000000000000 ) ) ;
#86 = EDGE_CURVE ( 'NONE', #409, #612, #874, .T. ) ;
#87 = CARTESIAN_POINT ( 'NONE',  ( -7.000000000000000888, -4.104656504405668649, -7.000000000000000888 ) ) ;
#88 = CC_DESIGN_PERSON_AND_ORGANIZATION_ASSIGNMENT ( #757, #871, ( #646 ) ) ;
#89 = ORIENTED_EDGE ( 'NONE', *, *, #807, .T. ) ;
#90 = DIRECTION ( 'NONE',  ( 1.000000000000000000, -1.613696256722611405E-16, 1.210272192541958616E-16 ) ) ;
#91 = ORIENTED_EDGE ( 'NONE', *, *, #118, .F. ) ;
#92 = FACE_OUTER_BOUND ( 'NONE', #457, .T. ) ;
#93 = CARTESIAN_POINT ( 'NONE',  ( 10.75000000000000000, -4.104656504405670425, -2.000000000000000000 ) ) ;
#94 = ORIENTED_EDGE ( 'NONE', *, *, #1294, .F. ) ;
#95 = DIRECTION ( 'NONE',  ( 0.000000000000000000, 0.000000000000000000, -1.000000000000000000 ) ) ;
#96 = ADVANCED_FACE ( 'NONE', ( #262 ), #1087, .T. ) ;
#97 = CARTESIAN_POINT ( 'NONE',  ( 7.000000000000000000, -4.104656504405672202, -6.999999999999999112 ) ) ;
#98 = LINE ( 'NONE', #810, #1176 ) ;
#99 = CLOSED_SHELL ( 'NONE', ( #422, #221, #549, #1099, #491, #287, #1105, #1335, #389, #730, #1184, #908, #497, #1166, #679, #576, #878, #202, #1306, #1126, #717, #1139, #516, #381, #1014, #997, #293, #959, #952, #777, #330, #899, #1058, #367, #96, #1215, #1049, #924, #540, #1236, #141, #270, #939 ) ) ;
#100 = ORIENTED_EDGE ( 'NONE', *, *, #155, .F. ) ;
#101 = CARTESIAN_POINT ( 'NONE',  ( -12.25000000000000000, 0.9999999999999995559, 8.000000000000000000 ) ) ;
#102 = AXIS2_PLACEMENT_3D ( 'NONE', #863, #234, #1053 ) ;
#103 = EDGE_CURVE ( 'NONE', #467, #420, #1280, .T. ) ;
#104 = ORIENTED_EDGE ( 'NONE', *, *, #1032, .F. ) ;
#105 = DIRECTION ( 'NONE',  ( 1.000000000000000000, 0.000000000000000000, 0.000000000000000000 ) ) ;
#106 = CIRCLE ( 'NONE', #1224, 2.000000000000000000 ) ;
#107 = FACE_OUTER_BOUND ( 'NONE', #571, .T. ) ;
#108 = ORIENTED_EDGE ( 'NONE', *, *, #614, .F. ) ;
#109 = DIRECTION ( 'NONE',  ( 0.000000000000000000, 0.000000000000000000, -1.000000000000000000 ) ) ;
#110 = ORIENTED_EDGE ( 'NONE', *, *, #239, .F. ) ;
#111 = CYLINDRICAL_SURFACE ( 'NONE', #1221, 2.999999999999999112 ) ;
#112 = CC_DESIGN_PERSON_AND_ORGANIZATION_ASSIGNMENT ( #1278, #1061, ( #868 ) ) ;
#113 = CARTESIAN_POINT ( 'NONE',  ( -1.000000000000000888, -4.104656504405668649, -2.000000000000001332 ) ) ;
#114 = ORIENTED_EDGE ( 'NONE', *, *, #454, .F. ) ;
#115 = CARTESIAN_POINT ( 'NONE',  ( -10.75000000000000000, -12.10465650440565888, -2.000000000000002665 ) ) ;
#116 = ORIENTED_EDGE ( 'NONE', *, *, #659, .T. ) ;
#117 = CARTESIAN_POINT ( 'NONE',  ( -12.25000000000000000, 1.000000000000000222, 10.00000000000000000 ) ) ;
#118 = EDGE_CURVE ( 'NONE', #518, #934, #382, .T. ) ;
#119 = CARTESIAN_POINT ( 'NONE',  ( 16.10000000000000142, 2.999999999999999112, 0.000000000000000000 ) ) ;
#120 = ORIENTED_EDGE ( 'NONE', *, *, #337, .T. ) ;
#121 = DIRECTION ( 'NONE',  ( 1.000000000000000000, 0.000000000000000000, 0.000000000000000000 ) ) ;
#122 = VECTOR ( 'NONE', #1256, 1000.000000000000114 ) ;
#123 = ORIENTED_EDGE ( 'NONE', *, *, #1230, .F. ) ;
#124 = DIRECTION ( 'NONE',  ( 1.000000000000000000, 0.000000000000000000, 0.000000000000000000 ) ) ;
#125 = CIRCLE ( 'NONE', #450, 0.9999999999999991118 ) ;
#126 = VECTOR ( 'NONE', #713, 1000.000000000000000 ) ;
#127 = AXIS2_PLACEMENT_3D ( 'NONE', #1263, #154, #1255 ) ;
#128 = DATE_AND_TIME ( #772, #1132 ) ;
#129 = CARTESIAN_POINT ( 'NONE',  ( -16.10000000000000142, -4.104656504405666873, -11.00000000000000000 ) ) ;
#130 = ORIENTED_EDGE ( 'NONE', *, *, #48, .T. ) ;
#131 = LINE ( 'NONE', #553, #168 ) ;
#132 = EDGE_CURVE ( 'NONE', #409, #1187, #80, .T. ) ;
#133 = ORIENTED_EDGE ( 'NONE', *, *, #1081, .F. ) ;
#134 = PLANE ( 'NONE',  #619 ) ;
#135 = COORDINATED_UNIVERSAL_TIME_OFFSET ( 8, 0, .AHEAD. ) ;
#136 = PLANE ( 'NONE',  #1199 ) ;
#137 = ORIENTED_EDGE ( 'NONE', *, *, #606, .T. ) ;
#138 = DIRECTION ( 'NONE',  ( -0.000000000000000000, -0.000000000000000000, 1.000000000000000000 ) ) ;
#139 = ORIENTED_EDGE ( 'NONE', *, *, #944, .T. ) ;
#140 = CARTESIAN_POINT ( 'NONE',  ( 9.500000000000000000, -0.9999999999999970024, -5.999999999999999112 ) ) ;
#141 = ADVANCED_FACE ( 'NONE', ( #175 ), #390, .F. ) ;
#142 = DIRECTION ( 'NONE',  ( -0.000000000000000000, -0.000000000000000000, -1.000000000000000000 ) ) ;
#143 = ORIENTED_EDGE ( 'NONE', *, *, #833, .T. ) ;
#144 = DIRECTION ( 'NONE',  ( -0.000000000000000000, 1.000000000000000000, -0.000000000000000000 ) ) ;
#145 = ORIENTED_EDGE ( 'NONE', *, *, #1154, .T. ) ;
#146 = DIRECTION ( 'NONE',  ( 1.000000000000000000, 0.000000000000000000, 0.000000000000000000 ) ) ;
#147 = AXIS2_PLACEMENT_3D ( 'NONE', #961, #1146, #529 ) ;
#148 = AXIS2_PLACEMENT_3D ( 'NONE', #1279, #1210, #1204 ) ;
#149 = CARTESIAN_POINT ( 'NONE',  ( -7.000000000000002665, -4.104656504405667761, -2.000000000000002220 ) ) ;
#150 = ORIENTED_EDGE ( 'NONE', *, *, #10, .F. ) ;
#151 = CARTESIAN_POINT ( 'NONE',  ( -16.10000000000000142, -4.104656504405666873, -11.00000000000000000 ) ) ;
#152 = ORIENTED_EDGE ( 'NONE', *, *, #736, .F. ) ;
#153 = DIRECTION ( 'NONE',  ( -0.000000000000000000, -1.000000000000000000, -0.000000000000000000 ) ) ;
#154 = DIRECTION ( 'NONE',  ( 0.000000000000000000, 0.000000000000000000, 1.000000000000000000 ) ) ;
#155 = EDGE_CURVE ( 'NONE', #527, #762, #466, .T. ) ;
#156 = DIRECTION ( 'NONE',  ( -1.000000000000000000, 0.000000000000000000, 0.000000000000000000 ) ) ;
#157 = CYLINDRICAL_SURFACE ( 'NONE', #1048, 2.000000000000000000 ) ;
#158 = ORIENTED_EDGE ( 'NONE', *, *, #1006, .T. ) ;
#159 = DIRECTION ( 'NONE',  ( 1.000000000000000000, 0.000000000000000000, 0.000000000000000000 ) ) ;
#160 = EDGE_CURVE ( 'NONE', #400, #1170, #773, .T. ) ;
#161 = CARTESIAN_POINT ( 'NONE',  ( 12.25000000000000000, 7.500961644777537685E-16, 10.00000000000000000 ) ) ;
#162 = CARTESIAN_POINT ( 'NONE',  ( 1.000000000000000000, -4.104656504405670425, -7.000000000000000000 ) ) ;
#163 = ORIENTED_EDGE ( 'NONE', *, *, #930, .F. ) ;
#164 = PLANE ( 'NONE',  #1004 ) ;
#165 = ORIENTED_EDGE ( 'NONE', *, *, #1249, .T. ) ;
#166 = VECTOR ( 'NONE', #55, 1000.000000000000000 ) ;
#167 = AXIS2_PLACEMENT_3D ( 'NONE', #256, #1074, #159 ) ;
#168 = VECTOR ( 'NONE', #241, 1000.000000000000000 ) ;
#169 = LINE ( 'NONE', #1096, #1024 ) ;
#170 = DIRECTION ( 'NONE',  ( 0.000000000000000000, 0.000000000000000000, 1.000000000000000000 ) ) ;
#171 = ORIENTED_EDGE ( 'NONE', *, *, #1067, .T. ) ;
#172 = CYLINDRICAL_SURFACE ( 'NONE', #430, 2.999999999999999112 ) ;
#173 = EDGE_LOOP ( 'NONE', ( #343, #624, #223, #352, #479, #434, #171, #753 ) ) ;
#174 = DIRECTION ( 'NONE',  ( 1.000000000000000000, 0.000000000000000000, 0.000000000000000000 ) ) ;
#175 = FACE_OUTER_BOUND ( 'NONE', #312, .T. ) ;
#176 = ORIENTED_EDGE ( 'NONE', *, *, #248, .F. ) ;
#177 = CARTESIAN_POINT ( 'NONE',  ( -10.75000000000000000, -11.10465650440566776, 0.000000000000000000 ) ) ;
#178 = EDGE_CURVE ( 'NONE', #837, #851, #472, .T. ) ;
#179 = PLANE ( 'NONE',  #489 ) ;
#180 = CARTESIAN_POINT ( 'NONE',  ( -12.25000000000000000, 0.9999999999999995559, 10.00000000000000000 ) ) ;
#181 = ORIENTED_EDGE ( 'NONE', *, *, #694, .F. ) ;
#182 = DIRECTION ( 'NONE',  ( -1.000000000000000000, 0.000000000000000000, 0.000000000000000000 ) ) ;
#183 = CARTESIAN_POINT ( 'NONE',  ( -9.500000000000000000, -0.9999999999999945599, -5.999999999999999112 ) ) ;
#184 = EDGE_CURVE ( 'NONE', #627, #1269, #267, .T. ) ;
#185 = EDGE_CURVE ( 'NONE', #1187, #840, #276, .T. ) ;
#186 = VECTOR ( 'NONE', #900, 1000.000000000000000 ) ;
#187 = CARTESIAN_POINT ( 'NONE',  ( 12.00000000000000000, -0.9999999999999967804, -5.999999999999999112 ) ) ;
#188 = AXIS2_PLACEMENT_3D ( 'NONE', #72, #1195, #684 ) ;
#189 = ORIENTED_EDGE ( 'NONE', *, *, #1145, .T. ) ;
#190 = LINE ( 'NONE', #602, #261 ) ;
#191 = VECTOR ( 'NONE', #1142, 1000.000000000000000 ) ;
#192 = APPROVAL_PERSON_ORGANIZATION ( #660, #569, #459 ) ;
#193 = ORIENTED_EDGE ( 'NONE', *, *, #815, .T. ) ;
#194 = CARTESIAN_POINT ( 'NONE',  ( -12.25000000000000000, 2.999999999999999556, 10.00000000000000000 ) ) ;
#195 = EDGE_CURVE ( 'NONE', #1073, #941, #496, .T. ) ;
#196 = DIRECTION ( 'NONE',  ( -0.000000000000000000, 0.8479983040050880216, -0.5299989400031799303 ) ) ;
#197 = EDGE_LOOP ( 'NONE', ( #843, #1219, #130, #999, #817, #310 ) ) ;
#198 = LINE ( 'NONE', #1029, #191 ) ;
#199 = ORIENTED_EDGE ( 'NONE', *, *, #1273, .F. ) ;
#200 = DIRECTION ( 'NONE',  ( -0.000000000000000000, -0.000000000000000000, -1.000000000000000000 ) ) ;
#201 = DIRECTION ( 'NONE',  ( 1.000000000000000000, 0.000000000000000000, 0.000000000000000000 ) ) ;
#202 = ADVANCED_FACE ( 'NONE', ( #1133, #314, #308 ), #394, .F. ) ;
#203 = ORIENTED_EDGE ( 'NONE', *, *, #858, .F. ) ;
#204 = CARTESIAN_POINT ( 'NONE',  ( -7.000000000000000888, -4.104656504405668649, -7.000000000000000888 ) ) ;
#205 = ORIENTED_EDGE ( 'NONE', *, *, #1067, .F. ) ;
#206 = CARTESIAN_POINT ( 'NONE',  ( 12.00000000000000000, -0.9999999999999967804, -5.999999999999999112 ) ) ;
#207 = FACE_OUTER_BOUND ( 'NONE', #268, .T. ) ;
#208 = VECTOR ( 'NONE', #980, 1000.000000000000000 ) ;
#209 = EDGE_LOOP ( 'NONE', ( #1030, #1192, #769, #1124 ) ) ;
#210 = DIRECTION ( 'NONE',  ( 0.000000000000000000, -0.8479983040050880216, 0.5299989400031799303 ) ) ;
#211 = CIRCLE ( 'NONE', #667, 2.999999999999999112 ) ;
#212 = EDGE_LOOP ( 'NONE', ( #334, #922, #1283 ) ) ;
#213 = CARTESIAN_POINT ( 'NONE',  ( 0.000000000000000000, 0.000000000000000000, 0.000000000000000000 ) ) ;
#214 = VECTOR ( 'NONE', #90, 1000.000000000000000 ) ;
#215 = CIRCLE ( 'NONE', #84, 2.000000000000000000 ) ;
#216 = CARTESIAN_POINT ( 'NONE',  ( 9.000000000000001776, -4.104656504405672202, -6.999999999999999112 ) ) ;
#217 = EDGE_LOOP ( 'NONE', ( #538, #474, #123, #20 ) ) ;
#218 = DIRECTION ( 'NONE',  ( 1.000000000000000000, 0.000000000000000000, 0.000000000000000000 ) ) ;
#219 = ORIENTED_EDGE ( 'NONE', *, *, #568, .T. ) ;
#220 = LINE ( 'NONE', #814, #426 ) ;
#221 = ADVANCED_FACE ( 'NONE', ( #107 ), #79, .F. ) ;
#222 = CARTESIAN_POINT ( 'NONE',  ( -7.000000000000000888, -4.104656504405668649, -2.000000000000000888 ) ) ;
#223 = ORIENTED_EDGE ( 'NONE', *, *, #184, .F. ) ;
#224 = DIRECTION ( 'NONE',  ( 0.000000000000000000, 0.000000000000000000, 1.000000000000000000 ) ) ;
#225 = ORIENTED_EDGE ( 'NONE', *, *, #833, .F. ) ;
#226 = LINE ( 'NONE', #536, #81 ) ;
#227 = EDGE_CURVE ( 'NONE', #677, #75, #423, .T. ) ;
#228 = CARTESIAN_POINT ( 'NONE',  ( -15.25000000000000000, 7.500961644777537685E-16, 0.000000000000000000 ) ) ;
#229 = EDGE_CURVE ( 'NONE', #52, #584, #399, .T. ) ;
#230 = EDGE_LOOP ( 'NONE', ( #1292, #629, #395, #163, #963, #1274, #525, #665, #143, #984, #748, #240, #1070, #158, #672, #104, #1052, #1149, #328, #1121 ) ) ;
#231 = CARTESIAN_POINT ( 'NONE',  ( -0.9999999999999991118, -12.10465650440566066, -2.000000000000001332 ) ) ;
#232 = AXIS2_PLACEMENT_3D ( 'NONE', #1019, #605, #1336 ) ;
#233 = ORIENTED_EDGE ( 'NONE', *, *, #1294, .T. ) ;
#234 = DIRECTION ( 'NONE',  ( 0.000000000000000000, 0.000000000000000000, 1.000000000000000000 ) ) ;
#235 = AXIS2_PLACEMENT_3D ( 'NONE', #194, #1095, #393 ) ;
#236 = AXIS2_PLACEMENT_3D ( 'NONE', #12, #425, #1035 ) ;
#237 = CALENDAR_DATE ( 2026, 20, 8 ) ;
#238 = CARTESIAN_POINT ( 'NONE',  ( 1.000000000000000000, -4.104656504405670425, -7.000000000000000000 ) ) ;
#239 = EDGE_CURVE ( 'NONE', #1320, #906, #711, .T. ) ;
#240 = ORIENTED_EDGE ( 'NONE', *, *, #1189, .F. ) ;
#241 = DIRECTION ( 'NONE',  ( 1.000000000000000000, -1.212151497188762632E-16, -0.000000000000000000 ) ) ;
#242 = VERTEX_POINT ( 'NONE', #406 ) ;
#243 = LINE ( 'NONE', #1284, #744 ) ;
#244 = PERSON_AND_ORGANIZATION_ROLE ( 'design_owner' ) ;
#245 = DIRECTION ( 'NONE',  ( -0.000000000000000000, 0.5299989400031799303, 0.8479983040050880216 ) ) ;
#246 = ORIENTED_EDGE ( 'NONE', *, *, #418, .T. ) ;
#247 = FACE_OUTER_BOUND ( 'NONE', #212, .T. ) ;
#248 = EDGE_CURVE ( 'NONE', #934, #1073, #98, .T. ) ;
#249 = ORIENTED_EDGE ( 'NONE', *, *, #48, .F. ) ;
#250 = LINE ( 'NONE', #1060, #1330 ) ;
#251 = APPLICATION_CONTEXT ( 'configuration controlled 3d designs of mechanical parts and assemblies' ) ;
#252 = LINE ( 'NONE', #85, #640 ) ;
#253 = ORIENTED_EDGE ( 'NONE', *, *, #266, .F. ) ;
#254 = DIRECTION ( 'NONE',  ( 1.000000000000000000, 0.000000000000000000, -0.000000000000000000 ) ) ;
#255 = ORIENTED_EDGE ( 'NONE', *, *, #184, .T. ) ;
#256 = CARTESIAN_POINT ( 'NONE',  ( -9.500000000000000000, -0.9999999999999945599, -5.999999999999999112 ) ) ;
#257 = EDGE_CURVE ( 'NONE', #1245, #627, #1123, .T. ) ;
#258 = VECTOR ( 'NONE', #1205, 1000.000000000000114 ) ;
#259 = VECTOR ( 'NONE', #1138, 1000.000000000000114 ) ;
#260 = DATE_TIME_ROLE ( 'creation_date' ) ;
#261 = VECTOR ( 'NONE', #888, 1000.000000000000000 ) ;
#262 = FACE_OUTER_BOUND ( 'NONE', #1040, .T. ) ;
#263 = EDGE_LOOP ( 'NONE', ( #1207, #601, #1167, #1020 ) ) ;
#264 = CARTESIAN_POINT ( 'NONE',  ( -1.953323889007242657E-15, -12.10465650440566066, 6.500000000000000000 ) ) ;
#265 = UNCERTAINTY_MEASURE_WITH_UNIT (LENGTH_MEASURE( 1.000000000000000082E-05 ), #383, 'distance_accuracy_value', 'NONE');
#266 = EDGE_CURVE ( 'NONE', #718, #75, #801, .T. ) ;
#267 = LINE ( 'NONE', #675, #743 ) ;
#268 = EDGE_LOOP ( 'NONE', ( #253, #641, #955, #1092 ) ) ;
#269 = DIRECTION ( 'NONE',  ( 1.000000000000000000, -0.000000000000000000, 0.000000000000000000 ) ) ;
#270 = ADVANCED_FACE ( 'NONE', ( #207 ), #1118, .F. ) ;
#271 = DIRECTION ( 'NONE',  ( -9.523561594306672852E-17, -0.7071067811865474617, 0.7071067811865474617 ) ) ;
#272 = DIRECTION ( 'NONE',  ( -0.000000000000000000, -0.000000000000000000, -1.000000000000000000 ) ) ;
#273 = ORIENTED_EDGE ( 'NONE', *, *, #1189, .T. ) ;
#274 = CARTESIAN_POINT ( 'NONE',  ( -13.25000000000000000, 8.725608443924889167E-16, 8.000000000000000000 ) ) ;
#275 = CARTESIAN_POINT ( 'NONE',  ( 9.000000000000001776, -12.10465650440567309, -1.999999999999999112 ) ) ;
#276 = CIRCLE ( 'NONE', #1044, 0.9999999999999991118 ) ;
#277 = AXIS2_PLACEMENT_3D ( 'NONE', #506, #313, #935 ) ;
#278 = DIRECTION ( 'NONE',  ( 0.000000000000000000, 0.000000000000000000, 1.000000000000000000 ) ) ;
#279 = CC_DESIGN_SECURITY_CLASSIFICATION ( #18, ( #646 ) ) ;
#280 = EDGE_CURVE ( 'NONE', #242, #400, #492, .T. ) ;
#281 = ORIENTED_EDGE ( 'NONE', *, *, #1230, .T. ) ;
#282 = CARTESIAN_POINT ( 'NONE',  ( 0.000000000000000000, 0.000000000000000000, 6.500000000000000000 ) ) ;
#283 = LINE ( 'NONE', #690, #16 ) ;
#284 = CARTESIAN_POINT ( 'NONE',  ( -1.000000000000000000, -12.10465650440567131, -2.000000000000000000 ) ) ;
#285 = VERTEX_POINT ( 'NONE', #303 ) ;
#286 = CARTESIAN_POINT ( 'NONE',  ( -7.000000000000000888, 1.423362852083534294E-15, -1.067522139062650869E-15 ) ) ;
#287 = ADVANCED_FACE ( 'NONE', ( #816 ), #517, .F. ) ;
#288 = CARTESIAN_POINT ( 'NONE',  ( -10.75000000000000000, -14.10465650440566598, -2.000000000000002665 ) ) ;
#289 = DIRECTION ( 'NONE',  ( -1.000000000000000000, -0.000000000000000000, -0.000000000000000000 ) ) ;
#290 = ORIENTED_EDGE ( 'NONE', *, *, #1174, .T. ) ;
#291 = CARTESIAN_POINT ( 'NONE',  ( -16.10000000000000142, -4.104656504405666873, 0.000000000000000000 ) ) ;
#292 = FACE_OUTER_BOUND ( 'NONE', #621, .T. ) ;
#293 = ADVANCED_FACE ( 'NONE', ( #413 ), #1231, .F. ) ;
#294 = VECTOR ( 'NONE', #1033, 1000.000000000000000 ) ;
#295 = DIRECTION ( 'NONE',  ( -0.000000000000000000, -0.000000000000000000, -1.000000000000000000 ) ) ;
#296 = VECTOR ( 'NONE', #591, 1000.000000000000000 ) ;
#297 = VECTOR ( 'NONE', #351, 1000.000000000000000 ) ;
#298 = VERTEX_POINT ( 'NONE', #821 ) ;
#299 = CARTESIAN_POINT ( 'NONE',  ( 16.10000000000000142, 2.999999999999999112, 0.000000000000000000 ) ) ;
#300 = VERTEX_POINT ( 'NONE', #696 ) ;
#301 = CARTESIAN_POINT ( 'NONE',  ( -12.25000000000000000, 7.500961644777537685E-16, 8.000000000000000000 ) ) ;
#302 = EDGE_CURVE ( 'NONE', #563, #941, #599, .T. ) ;
#303 = CARTESIAN_POINT ( 'NONE',  ( -10.75000000000000000, -12.10465650440565888, 6.500000000000000000 ) ) ;
#304 = EDGE_LOOP ( 'NONE', ( #94, #379, #493, #862 ) ) ;
#305 = CARTESIAN_POINT ( 'NONE',  ( 10.75000000000000000, -4.104656504405669537, 0.000000000000000000 ) ) ;
#306 = VERTEX_POINT ( 'NONE', #93 ) ;
#307 = CARTESIAN_POINT ( 'NONE',  ( 9.000000000000001776, -4.104656504405670425, -2.000000000000000000 ) ) ;
#308 = FACE_OUTER_BOUND ( 'NONE', #1147, .T. ) ;
#309 = EDGE_CURVE ( 'NONE', #1320, #1137, #502, .T. ) ;
#310 = ORIENTED_EDGE ( 'NONE', *, *, #791, .T. ) ;
#311 = CARTESIAN_POINT ( 'NONE',  ( 12.25000000000000000, 7.500961644777537685E-16, 8.000000000000000000 ) ) ;
#312 = EDGE_LOOP ( 'NONE', ( #193, #1160 ) ) ;
#313 = DIRECTION ( 'NONE',  ( 0.000000000000000000, 0.000000000000000000, 1.000000000000000000 ) ) ;
#314 = FACE_BOUND ( 'NONE', #1143, .T. ) ;
#315 = PERSON ( 'æœª', 'æœª', 'æœª', ('æœª'), ('æœª'), ('æœª') ) ;
#316 = VECTOR ( 'NONE', #156, 1000.000000000000000 ) ;
#317 = ORIENTED_EDGE ( 'NONE', *, *, #668, .T. ) ;
#318 = CARTESIAN_POINT ( 'NONE',  ( -1.000000000000000000, 0.000000000000000000, 0.000000000000000000 ) ) ;
#319 = EDGE_CURVE ( 'NONE', #552, #612, #722, .T. ) ;
#320 = AXIS2_PLACEMENT_3D ( 'NONE', #595, #482, #661 ) ;
#321 = ORIENTED_EDGE ( 'NONE', *, *, #1081, .T. ) ;
#322 = DIRECTION ( 'NONE',  ( 0.000000000000000000, 0.000000000000000000, 1.000000000000000000 ) ) ;
#323 = TOROIDAL_SURFACE ( 'NONE', #809, 0.9999999999999995559, 2.000000000000000000 ) ;
#324 = DIRECTION ( 'NONE',  ( -0.000000000000000000, -0.000000000000000000, -1.000000000000000000 ) ) ;
#325 = DIRECTION ( 'NONE',  ( -0.000000000000000000, -0.000000000000000000, 1.000000000000000000 ) ) ;
#326 = DIRECTION ( 'NONE',  ( -0.000000000000000000, -0.000000000000000000, 1.000000000000000000 ) ) ;
#327 = EDGE_CURVE ( 'NONE', #1085, #1008, #421, .T. ) ;
#328 = ORIENTED_EDGE ( 'NONE', *, *, #568, .F. ) ;
#329 = CARTESIAN_POINT ( 'NONE',  ( -10.75000000000000000, -14.10465650440566598, 4.499999999999991118 ) ) ;
#330 = ADVANCED_FACE ( 'NONE', ( #632 ), #1140, .F. ) ;
#331 = DIRECTION ( 'NONE',  ( -1.000000000000000000, 0.000000000000000000, 0.000000000000000000 ) ) ;
#332 = VERTEX_POINT ( 'NONE', #437 ) ;
#333 = CARTESIAN_POINT ( 'NONE',  ( -10.75000000000000000, -14.10465650440566598, 6.071532165918824830E-15 ) ) ;
#334 = ORIENTED_EDGE ( 'NONE', *, *, #1006, .F. ) ;
#335 = CARTESIAN_POINT ( 'NONE',  ( -16.10000000000000142, 3.000000000000003109, 0.000000000000000000 ) ) ;
#336 = APPLICATION_CONTEXT ( 'configuration controlled 3d designs of mechanical parts and assemblies' ) ;
#337 = EDGE_CURVE ( 'NONE', #972, #593, #1272, .T. ) ;
#338 = PERSON_AND_ORGANIZATION_ROLE ( 'creator' ) ;
#339 = DIRECTION ( 'NONE',  ( -1.000000000000000000, 1.613696256722611405E-16, -1.210272192541958616E-16 ) ) ;
#340 = ORIENTED_EDGE ( 'NONE', *, *, #800, .T. ) ;
#341 = PLANE ( 'NONE',  #853 ) ;
#342 = VECTOR ( 'NONE', #196, 1000.000000000000114 ) ;
#343 = ORIENTED_EDGE ( 'NONE', *, *, #461, .F. ) ;
#344 = DIRECTION ( 'NONE',  ( 1.000000000000000000, -0.000000000000000000, 0.000000000000000000 ) ) ;
#345 = VECTOR ( 'NONE', #1254, 1000.000000000000000 ) ;
#346 = VECTOR ( 'NONE', #446, 1000.000000000000000 ) ;
#347 = COORDINATED_UNIVERSAL_TIME_OFFSET ( 8, 0, .AHEAD. ) ;
#348 = EDGE_CURVE ( 'NONE', #1073, #1015, #444, .T. ) ;
#349 = FACE_OUTER_BOUND ( 'NONE', #365, .T. ) ;
#350 = VERTEX_POINT ( 'NONE', #648 ) ;
#351 = DIRECTION ( 'NONE',  ( 1.000000000000000000, -1.613696256722611405E-16, 1.210272192541958616E-16 ) ) ;
#352 = ORIENTED_EDGE ( 'NONE', *, *, #637, .T. ) ;
#353 = LINE ( 'NONE', #967, #703 ) ;
#354 = APPROVAL_DATE_TIME ( #567, #969 ) ;
#355 = DIRECTION ( 'NONE',  ( -1.000000000000000000, 1.613696256722611405E-16, -1.210272192541958616E-16 ) ) ;
#356 = ORIENTED_EDGE ( 'NONE', *, *, #1038, .F. ) ;
#357 = DIRECTION ( 'NONE',  ( -0.000000000000000000, -0.000000000000000000, 1.000000000000000000 ) ) ;
#358 = CC_DESIGN_DATE_AND_TIME_ASSIGNMENT ( #361, #260, ( #868 ) ) ;
#359 = ORIENTED_EDGE ( 'NONE', *, *, #1316, .F. ) ;
#360 = DIRECTION ( 'NONE',  ( 1.000000000000000000, -1.613696256722611405E-16, 0.000000000000000000 ) ) ;
#361 = DATE_AND_TIME ( #443, #1005 ) ;
#362 = FACE_OUTER_BOUND ( 'NONE', #520, .T. ) ;
#363 = CARTESIAN_POINT ( 'NONE',  ( -12.00000000000000000, -0.9999999999999945599, -5.999999999999999112 ) ) ;
#364 = DIRECTION ( 'NONE',  ( 0.000000000000000000, 0.000000000000000000, -1.000000000000000000 ) ) ;
#365 = EDGE_LOOP ( 'NONE', ( #116, #108, #615, #424 ) ) ;
#366 = CARTESIAN_POINT ( 'NONE',  ( -16.10000000000000142, -4.104656504405666873, 0.000000000000000000 ) ) ;
#367 = ADVANCED_FACE ( 'NONE', ( #349 ), #1155, .F. ) ;
#368 = VECTOR ( 'NONE', #1013, 1000.000000000000000 ) ;
#369 = CIRCLE ( 'NONE', #896, 2.999999999999999112 ) ;
#370 = PERSON_AND_ORGANIZATION ( #315, #600 ) ;
#371 = AXIS2_PLACEMENT_3D ( 'NONE', #877, #1108, #1293 ) ;
#372 = CARTESIAN_POINT ( 'NONE',  ( 16.10000000000000142, 2.999999999999999112, -11.00000000000000000 ) ) ;
#373 = FACE_OUTER_BOUND ( 'NONE', #23, .T. ) ;
#374 = ORIENTED_EDGE ( 'NONE', *, *, #376, .F. ) ;
#375 = DIRECTION ( 'NONE',  ( -1.210272192541958616E-16, 1.630036944661846601E-32, 1.000000000000000000 ) ) ;
#376 = EDGE_CURVE ( 'NONE', #593, #1317, #626, .T. ) ;
#377 = LINE ( 'NONE', #180, #316 ) ;
#378 = DIRECTION ( 'NONE',  ( -1.000000000000000000, 0.000000000000000000, 0.000000000000000000 ) ) ;
#379 = ORIENTED_EDGE ( 'NONE', *, *, #668, .F. ) ;
#380 = DIRECTION ( 'NONE',  ( 0.000000000000000000, 0.000000000000000000, -1.000000000000000000 ) ) ;
#381 = ADVANCED_FACE ( 'NONE', ( #1039 ), #136, .F. ) ;
#382 = LINE ( 'NONE', #783, #208 ) ;
#383 =( LENGTH_UNIT ( ) NAMED_UNIT ( * ) SI_UNIT ( .MILLI., .METRE. ) );
#384 = ORIENTED_EDGE ( 'NONE', *, *, #839, .T. ) ;
#385 = CARTESIAN_POINT ( 'NONE',  ( 16.10000000000000142, 2.999999999999999112, 0.000000000000000000 ) ) ;
#386 = CARTESIAN_POINT ( 'NONE',  ( -6.999999999999999112, -0.9999999999999943379, -5.999999999999999112 ) ) ;
#387 = AXIS2_PLACEMENT_3D ( 'NONE', #680, #484, #886 ) ;
#388 = VECTOR ( 'NONE', #153, 1000.000000000000000 ) ;
#389 = ADVANCED_FACE ( 'NONE', ( #453 ), #1264, .F. ) ;
#390 = PLANE ( 'NONE',  #768 ) ;
#391 = ORIENTED_EDGE ( 'NONE', *, *, #704, .F. ) ;
#392 = DIRECTION ( 'NONE',  ( 1.000000000000000000, 0.000000000000000000, 0.000000000000000000 ) ) ;
#393 = DIRECTION ( 'NONE',  ( 0.000000000000000000, -0.000000000000000000, -1.000000000000000000 ) ) ;
#394 = PLANE ( 'NONE',  #827 ) ;
#395 = ORIENTED_EDGE ( 'NONE', *, *, #1154, .F. ) ;
#396 = DIRECTION ( 'NONE',  ( -0.000000000000000000, -0.000000000000000000, -1.000000000000000000 ) ) ;
#397 = EDGE_CURVE ( 'NONE', #762, #802, #731, .T. ) ;
#398 = CARTESIAN_POINT ( 'NONE',  ( -16.10000000000000142, 3.000000000000003109, -11.00000000000000000 ) ) ;
#399 = LINE ( 'NONE', #611, #342 ) ;
#400 = VERTEX_POINT ( 'NONE', #113 ) ;
#401 = DIRECTION ( 'NONE',  ( 0.000000000000000000, 0.000000000000000000, -1.000000000000000000 ) ) ;
#402 = EDGE_CURVE ( 'NONE', #563, #518, #31, .T. ) ;
#403 = ORIENTED_EDGE ( 'NONE', *, *, #522, .T. ) ;
#404 = DIRECTION ( 'NONE',  ( -0.000000000000000000, -0.000000000000000000, -1.000000000000000000 ) ) ;
#405 = VECTOR ( 'NONE', #638, 1000.000000000000000 ) ;
#406 = CARTESIAN_POINT ( 'NONE',  ( -1.000000000000000888, -4.104656504405667761, -7.000000000000001776 ) ) ;
#407 = AXIS2_PLACEMENT_3D ( 'NONE', #140, #645, #1277 ) ;
#408 = AXIS2_PLACEMENT_3D ( 'NONE', #475, #66, #392 ) ;
#409 = VERTEX_POINT ( 'NONE', #1046 ) ;
#410 = DIRECTION ( 'NONE',  ( -0.000000000000000000, -0.000000000000000000, 1.000000000000000000 ) ) ;
#411 = ORIENTED_EDGE ( 'NONE', *, *, #531, .F. ) ;
#412 = DIRECTION ( 'NONE',  ( 0.000000000000000000, 0.000000000000000000, 1.000000000000000000 ) ) ;
#413 = FACE_OUTER_BOUND ( 'NONE', #1114, .T. ) ;
#414 = ORIENTED_EDGE ( 'NONE', *, *, #86, .F. ) ;
#415 = CARTESIAN_POINT ( 'NONE',  ( -10.75000000000000000, -14.10465650440566598, -2.632990618166809630E-15 ) ) ;
#416 = ORIENTED_EDGE ( 'NONE', *, *, #178, .F. ) ;
#417 = CARTESIAN_POINT ( 'NONE',  ( -12.25000000000000000, -0.9999999999999995559, 8.000000000000000000 ) ) ;
#418 = EDGE_CURVE ( 'NONE', #762, #780, #751, .T. ) ;
#419 = ORIENTED_EDGE ( 'NONE', *, *, #531, .T. ) ;
#420 = VERTEX_POINT ( 'NONE', #228 ) ;
#421 = LINE ( 'NONE', #119, #405 ) ;
#422 = ADVANCED_FACE ( 'NONE', ( #431 ), #836, .F. ) ;
#423 = CIRCLE ( 'NONE', #36, 2.500000000000000444 ) ;
#424 = ORIENTED_EDGE ( 'NONE', *, *, #454, .T. ) ;
#425 = DIRECTION ( 'NONE',  ( -1.210272192541958616E-16, 1.630036944661846601E-32, 1.000000000000000000 ) ) ;
#426 = VECTOR ( 'NONE', #1229, 1000.000000000000000 ) ;
#427 = EDGE_CURVE ( 'NONE', #1063, #1201, #1163, .T. ) ;
#428 = ORIENTED_EDGE ( 'NONE', *, *, #1119, .T. ) ;
#429 = FACE_OUTER_BOUND ( 'NONE', #440, .T. ) ;
#430 = AXIS2_PLACEMENT_3D ( 'NONE', #678, #985, #182 ) ;
#431 = FACE_OUTER_BOUND ( 'NONE', #1323, .T. ) ;
#432 = ORIENTED_EDGE ( 'NONE', *, *, #132, .F. ) ;
#433 = PLANE ( 'NONE',  #1243 ) ;
#434 = ORIENTED_EDGE ( 'NONE', *, *, #674, .T. ) ;
#435 = PLANE ( 'NONE',  #1130 ) ;
#436 = EDGE_CURVE ( 'NONE', #612, #1063, #537, .T. ) ;
#437 = CARTESIAN_POINT ( 'NONE',  ( 12.25000000000000000, 2.999999999999999556, 8.000000000000000000 ) ) ;
#438 = ORIENTED_EDGE ( 'NONE', *, *, #1209, .T. ) ;
#439 = DIRECTION ( 'NONE',  ( 0.000000000000000000, 1.000000000000000000, 0.000000000000000000 ) ) ;
#440 = EDGE_LOOP ( 'NONE', ( #110, #573, #225, #1331, #688, #152, #1116, #203, #181, #887, #416, #915, #205 ) ) ;
#441 = LINE ( 'NONE', #756, #388 ) ;
#442 = EDGE_CURVE ( 'NONE', #1303, #1320, #1062, .T. ) ;
#443 = CALENDAR_DATE ( 2026, 20, 8 ) ;
#444 = LINE ( 'NONE', #1055, #1287 ) ;
#445 = VERTEX_POINT ( 'NONE', #1068 ) ;
#446 = DIRECTION ( 'NONE',  ( -0.000000000000000000, -1.000000000000000000, -0.000000000000000000 ) ) ;
#447 = AXIS2_PLACEMENT_3D ( 'NONE', #987, #1307, #976 ) ;
#448 = ORIENTED_EDGE ( 'NONE', *, *, #483, .T. ) ;
#449 = FACE_OUTER_BOUND ( 'NONE', #209, .T. ) ;
#450 = AXIS2_PLACEMENT_3D ( 'NONE', #658, #846, #1150 ) ;
#451 = VECTOR ( 'NONE', #683, 1000.000000000000000 ) ;
#452 = DATE_AND_TIME ( #1162, #1157 ) ;
#453 = FACE_OUTER_BOUND ( 'NONE', #230, .T. ) ;
#454 = EDGE_CURVE ( 'NONE', #52, #972, #695, .T. ) ;
#455 = ORIENTED_EDGE ( 'NONE', *, *, #227, .F. ) ;
#456 = DIRECTION ( 'NONE',  ( 1.000000000000000000, 0.000000000000000000, 0.000000000000000000 ) ) ;
#457 = EDGE_LOOP ( 'NONE', ( #834, #655, #889 ) ) ;
#458 = LINE ( 'NONE', #465, #38 ) ;
#459 = APPROVAL_ROLE ( '' ) ;
#460 = CARTESIAN_POINT ( 'NONE',  ( 12.25000000000000000, 2.999999999999999556, 8.000000000000000000 ) ) ;
#461 = EDGE_CURVE ( 'NONE', #1015, #535, #487, .T. ) ;
#462 = CARTESIAN_POINT ( 'NONE',  ( -16.10000000000000142, 3.000000000000003109, 0.000000000000000000 ) ) ;
#463 = CARTESIAN_POINT ( 'NONE',  ( 13.25000000000000000, 7.500961644777537685E-16, 8.000000000000000000 ) ) ;
#464 = ORIENTED_EDGE ( 'NONE', *, *, #1273, .T. ) ;
#465 = CARTESIAN_POINT ( 'NONE',  ( 1.000000000000000000, -12.10465650440567131, -2.000000000000000000 ) ) ;
#466 = LINE ( 'NONE', #372, #1129 ) ;
#467 = VERTEX_POINT ( 'NONE', #910 ) ;
#468 = PLANE ( 'NONE',  #558 ) ;
#469 = CC_DESIGN_PERSON_AND_ORGANIZATION_ASSIGNMENT ( #370, #1286, ( #18 ) ) ;
#470 = AXIS2_PLACEMENT_3D ( 'NONE', #742, #324, #9 ) ;
#471 = TOROIDAL_SURFACE ( 'NONE', #598, 0.9999999999999995559, 2.000000000000000000 ) ;
#472 = LINE ( 'NONE', #462, #936 ) ;
#473 = CARTESIAN_POINT ( 'NONE',  ( 10.74999999999999822, -12.10465650440566243, -2.000000000000000000 ) ) ;
#474 = ORIENTED_EDGE ( 'NONE', *, *, #302, .F. ) ;
#475 = CARTESIAN_POINT ( 'NONE',  ( -9.500000000000000000, -0.9999999999999945599, -11.00000000000000000 ) ) ;
#476 = EDGE_CURVE ( 'NONE', #977, #957, #1104, .T. ) ;
#477 = DIRECTION ( 'NONE',  ( -1.000000000000000000, 0.000000000000000000, 0.000000000000000000 ) ) ;
#478 = LINE ( 'NONE', #676, #686 ) ;
#479 = ORIENTED_EDGE ( 'NONE', *, *, #800, .F. ) ;
#480 = PLANE ( 'NONE',  #371 ) ;
#481 = ORIENTED_EDGE ( 'NONE', *, *, #791, .F. ) ;
#482 = DIRECTION ( 'NONE',  ( -1.000000000000000000, 1.346834996876403308E-16, 0.000000000000000000 ) ) ;
#483 = EDGE_CURVE ( 'NONE', #612, #32, #1169, .T. ) ;
#484 = DIRECTION ( 'NONE',  ( 1.000000000000000000, 0.000000000000000000, -0.000000000000000000 ) ) ;
#485 = ORIENTED_EDGE ( 'NONE', *, *, #560, .F. ) ;
#486 = CARTESIAN_POINT ( 'NONE',  ( -12.00000000000000000, -0.9999999999999945599, -5.999999999999999112 ) ) ;
#487 = LINE ( 'NONE', #288, #296 ) ;
#488 = VECTOR ( 'NONE', #1217, 1000.000000000000000 ) ;
#489 = AXIS2_PLACEMENT_3D ( 'NONE', #398, #1110, #636 ) ;
#490 = AXIS2_PLACEMENT_3D ( 'NONE', #1165, #1064, #121 ) ;
#491 = ADVANCED_FACE ( 'NONE', ( #292 ), #604, .T. ) ;
#492 = LINE ( 'NONE', #1007, #186 ) ;
#493 = ORIENTED_EDGE ( 'NONE', *, *, #1322, .F. ) ;
#494 = CARTESIAN_POINT ( 'NONE',  ( -10.75000000000000000, -4.104656504405667761, -2.632990618166809630E-15 ) ) ;
#495 = PLANE ( 'NONE',  #148 ) ;
#496 = LINE ( 'NONE', #1106, #508 ) ;
#497 = ADVANCED_FACE ( 'NONE', ( #1012 ), #996, .F. ) ;
#498 = ORIENTED_EDGE ( 'NONE', *, *, #1145, .F. ) ;
#499 = CARTESIAN_POINT ( 'NONE',  ( 1.000000000000000000, -4.104656504405670425, -2.000000000000000000 ) ) ;
#500 = ORIENTED_EDGE ( 'NONE', *, *, #597, .T. ) ;
#501 = CARTESIAN_POINT ( 'NONE',  ( -7.000000000000000888, -4.104656504405668649, -7.000000000000000888 ) ) ;
#502 = LINE ( 'NONE', #911, #1308 ) ;
#503 = ORIENTED_EDGE ( 'NONE', *, *, #160, .F. ) ;
#504 = FACE_OUTER_BOUND ( 'NONE', #217, .T. ) ;
#505 = ORIENTED_EDGE ( 'NONE', *, *, #710, .F. ) ;
#506 = CARTESIAN_POINT ( 'NONE',  ( -12.25000000000000000, 7.500961644777537685E-16, 0.000000000000000000 ) ) ;
#507 = EDGE_CURVE ( 'NONE', #1303, #350, #252, .T. ) ;
#508 = VECTOR ( 'NONE', #1235, 1000.000000000000114 ) ;
#509 = DIRECTION ( 'NONE',  ( -1.000000000000000000, 1.613696256722611405E-16, 0.000000000000000000 ) ) ;
#510 = AXIS2_PLACEMENT_3D ( 'NONE', #1182, #673, #548 ) ;
#511 = CIRCLE ( 'NONE', #1156, 2.500000000000000444 ) ;
#512 = ORIENTED_EDGE ( 'NONE', *, *, #623, .T. ) ;
#513 = LINE ( 'NONE', #913, #1072 ) ;
#514 = EDGE_LOOP ( 'NONE', ( #1222, #831, #139, #28 ) ) ;
#515 = FACE_OUTER_BOUND ( 'NONE', #804, .T. ) ;
#516 = ADVANCED_FACE ( 'NONE', ( #890 ), #49, .F. ) ;
#517 = PLANE ( 'NONE',  #232 ) ;
#518 = VERTEX_POINT ( 'NONE', #149 ) ;
#519 = DIRECTION ( 'NONE',  ( 1.346834996876403308E-16, 1.000000000000000000, -0.000000000000000000 ) ) ;
#520 = EDGE_LOOP ( 'NONE', ( #1078, #682, #932, #950 ) ) ;
#521 = CARTESIAN_POINT ( 'NONE',  ( -12.25000000000000000, 7.500961644777537685E-16, 10.00000000000000000 ) ) ;
#522 = EDGE_CURVE ( 'NONE', #445, #854, #562, .T. ) ;
#523 = DIRECTION ( 'NONE',  ( -0.000000000000000000, -0.000000000000000000, 1.000000000000000000 ) ) ;
#524 = APPROVAL ( #1185, 'æœª' ) ;
#525 = ORIENTED_EDGE ( 'NONE', *, *, #418, .F. ) ;
#526 = LINE ( 'NONE', #1220, #897 ) ;
#527 = VERTEX_POINT ( 'NONE', #1216 ) ;
#528 = PLANE ( 'NONE',  #1025 ) ;
#529 = DIRECTION ( 'NONE',  ( 0.000000000000000000, -0.8479983040050880216, 0.5299989400031799303 ) ) ;
#530 = VECTOR ( 'NONE', #355, 1000.000000000000000 ) ;
#531 = EDGE_CURVE ( 'NONE', #300, #332, #77, .T. ) ;
#532 = VERTEX_POINT ( 'NONE', #895 ) ;
#533 = CARTESIAN_POINT ( 'NONE',  ( 13.25000000000000000, 7.500961644777537685E-16, 10.00000000000000000 ) ) ;
#534 = VECTOR ( 'NONE', #1041, 1000.000000000000114 ) ;
#535 = VERTEX_POINT ( 'NONE', #865 ) ;
#536 = CARTESIAN_POINT ( 'NONE',  ( -10.75000000000000000, -11.10465650440566776, 6.500000000000000000 ) ) ;
#537 = LINE ( 'NONE', #947, #1327 ) ;
#538 = ORIENTED_EDGE ( 'NONE', *, *, #195, .T. ) ;
#539 = CARTESIAN_POINT ( 'NONE',  ( -12.25000000000000000, 7.500961644777537685E-16, 8.000000000000000000 ) ) ;
#540 = ADVANCED_FACE ( 'NONE', ( #92 ), #495, .F. ) ;
#541 = EDGE_LOOP ( 'NONE', ( #11, #989, #1181, #1158 ) ) ;
#542 = CARTESIAN_POINT ( 'NONE',  ( 16.10000000000000142, 2.999999999999999112, -11.00000000000000000 ) ) ;
#543 = DATE_TIME_ROLE ( 'classification_date' ) ;
#544 = DIRECTION ( 'NONE',  ( 1.346834996876403308E-16, 1.000000000000000000, 0.000000000000000000 ) ) ;
#545 = ORIENTED_EDGE ( 'NONE', *, *, #1090, .T. ) ;
#546 = CARTESIAN_POINT ( 'NONE',  ( 10.74999999999999822, -14.10465650440566954, 4.499999999999991118 ) ) ;
#547 = EDGE_LOOP ( 'NONE', ( #1337, #150, #503 ) ) ;
#548 = DIRECTION ( 'NONE',  ( 1.000000000000000000, 0.000000000000000000, 0.000000000000000000 ) ) ;
#549 = ADVANCED_FACE ( 'NONE', ( #362 ), #1111, .T. ) ;
#550 = COORDINATED_UNIVERSAL_TIME_OFFSET ( 8, 0, .AHEAD. ) ;
#551 = DIRECTION ( 'NONE',  ( 1.346834996876403308E-16, 1.000000000000000000, -0.000000000000000000 ) ) ;
#552 = VERTEX_POINT ( 'NONE', #587 ) ;
#553 = CARTESIAN_POINT ( 'NONE',  ( 16.10000000000000142, 2.999999999999999112, -11.00000000000000000 ) ) ;
#554 = AXIS2_PLACEMENT_3D ( 'NONE', #1315, #1211, #925 ) ;
#555 = ORIENTED_EDGE ( 'NONE', *, *, #476, .T. ) ;
#556 = DIRECTION ( 'NONE',  ( -0.000000000000000000, -0.000000000000000000, 1.000000000000000000 ) ) ;
#557 = VECTOR ( 'NONE', #787, 1000.000000000000000 ) ;
#558 = AXIS2_PLACEMENT_3D ( 'NONE', #1000, #1311, #990 ) ;
#559 = VECTOR ( 'NONE', #988, 1000.000000000000000 ) ;
#560 = EDGE_CURVE ( 'NONE', #445, #13, #875, .T. ) ;
#561 = APPROVAL_STATUS ( 'not_yet_approved' ) ;
#562 = LINE ( 'NONE', #386, #808 ) ;
#563 = VERTEX_POINT ( 'NONE', #501 ) ;
#564 = LINE ( 'NONE', #33, #346 ) ;
#565 = EDGE_LOOP ( 'NONE', ( #340, #1239, #545, #928 ) ) ;
#566 = CARTESIAN_POINT ( 'NONE',  ( 16.10000000000000142, -4.104656504405670425, -11.00000000000000000 ) ) ;
#567 = DATE_AND_TIME ( #237, #64 ) ;
#568 = EDGE_CURVE ( 'NONE', #518, #400, #283, .T. ) ;
#569 = APPROVAL ( #561, 'æœª' ) ;
#570 = LINE ( 'NONE', #1290, #15 ) ;
#571 = EDGE_LOOP ( 'NONE', ( #485, #403, #189, #1310 ) ) ;
#572 = LINE ( 'NONE', #1079, #345 ) ;
#573 = ORIENTED_EDGE ( 'NONE', *, *, #309, .T. ) ;
#574 = DIRECTION ( 'NONE',  ( 0.000000000000000000, 0.000000000000000000, 1.000000000000000000 ) ) ;
#575 = CARTESIAN_POINT ( 'NONE',  ( -12.25000000000000000, 2.999999999999999556, 10.00000000000000000 ) ) ;
#576 = ADVANCED_FACE ( 'NONE', ( #1100 ), #179, .F. ) ;
#577 = ORIENTED_EDGE ( 'NONE', *, *, #427, .F. ) ;
#578 = CARTESIAN_POINT ( 'NONE',  ( 7.000000000000000000, -12.10465650440566243, -2.000000000000000444 ) ) ;
#579 = AXIS2_PLACEMENT_3D ( 'NONE', #1250, #848, #331 ) ;
#580 = VECTOR ( 'NONE', #749, 1000.000000000000000 ) ;
#581 = TOROIDAL_SURFACE ( 'NONE', #940, 0.9999999999999995559, 2.000000000000000000 ) ;
#582 = LINE ( 'NONE', #1296, #982 ) ;
#583 = DIRECTION ( 'NONE',  ( 0.000000000000000000, 0.000000000000000000, 1.000000000000000000 ) ) ;
#584 = VERTEX_POINT ( 'NONE', #709 ) ;
#585 = CARTESIAN_POINT ( 'NONE',  ( 9.500000000000000000, -0.9999999999999970024, -5.999999999999999112 ) ) ;
#586 = EDGE_CURVE ( 'NONE', #957, #972, #929, .T. ) ;
#587 = CARTESIAN_POINT ( 'NONE',  ( 15.25000000000000000, 7.500961644777537685E-16, 8.000000000000000000 ) ) ;
#588 = DIRECTION ( 'NONE',  ( 1.000000000000000000, 0.000000000000000000, 0.000000000000000000 ) ) ;
#589 = VERTEX_POINT ( 'NONE', #117 ) ;
#590 = LINE ( 'NONE', #494, #451 ) ;
#591 = DIRECTION ( 'NONE',  ( 1.346834996876403308E-16, 1.000000000000000000, -0.000000000000000000 ) ) ;
#592 = DIRECTION ( 'NONE',  ( 0.000000000000000000, 0.000000000000000000, -1.000000000000000000 ) ) ;
#593 = VERTEX_POINT ( 'NONE', #1144 ) ;
#594 = CARTESIAN_POINT ( 'NONE',  ( 7.000000000000000000, -4.104656504405669537, -2.000000000000000444 ) ) ;
#595 = CARTESIAN_POINT ( 'NONE',  ( 10.74999999999999822, -14.10465650440566954, 0.000000000000000000 ) ) ;
#596 = AXIS2_PLACEMENT_3D ( 'NONE', #691, #68, #477 ) ;
#597 = EDGE_CURVE ( 'NONE', #593, #1170, #835, .T. ) ;
#598 = AXIS2_PLACEMENT_3D ( 'NONE', #616, #1023, #105 ) ;
#599 = LINE ( 'NONE', #87, #368 ) ;
#600 = ORGANIZATION ( 'æœª', 'æœª', '' ) ;
#601 = ORIENTED_EDGE ( 'NONE', *, *, #807, .F. ) ;
#602 = CARTESIAN_POINT ( 'NONE',  ( 7.000000000000000000, -4.104656504405672202, -1.999999999999999112 ) ) ;
#603 = VERTEX_POINT ( 'NONE', #805 ) ;
#604 = CYLINDRICAL_SURFACE ( 'NONE', #188, 2.999999999999999112 ) ;
#605 = DIRECTION ( 'NONE',  ( -1.210272192541958616E-16, 1.630036944661846601E-32, 1.000000000000000000 ) ) ;
#606 = EDGE_CURVE ( 'NONE', #306, #1137, #8, .T. ) ;
#607 = EDGE_LOOP ( 'NONE', ( #1107, #759, #281 ) ) ;
#608 = LINE ( 'NONE', #613, #1203 ) ;
#609 = EDGE_LOOP ( 'NONE', ( #726, #1037 ) ) ;
#610 = CARTESIAN_POINT ( 'NONE',  ( 6.999999999999999112, -0.9999999999999970024, -11.00000000000000000 ) ) ;
#611 = CARTESIAN_POINT ( 'NONE',  ( 9.000000000000001776, -4.104656504405672202, -6.999999999999999112 ) ) ;
#612 = VERTEX_POINT ( 'NONE', #729 ) ;
#613 = CARTESIAN_POINT ( 'NONE',  ( 16.10000000000000142, 2.999999999999999112, -11.00000000000000000 ) ) ;
#614 = EDGE_CURVE ( 'NONE', #584, #532, #1117, .T. ) ;
#615 = ORIENTED_EDGE ( 'NONE', *, *, #229, .F. ) ;
#616 = CARTESIAN_POINT ( 'NONE',  ( -12.25000000000000000, 7.500961644777537685E-16, 8.000000000000000000 ) ) ;
#617 = AXIS2_PLACEMENT_3D ( 'NONE', #129, #954, #40 ) ;
#618 = DIRECTION ( 'NONE',  ( -1.000000000000000000, 0.000000000000000000, 0.000000000000000000 ) ) ;
#619 = AXIS2_PLACEMENT_3D ( 'NONE', #542, #29, #951 ) ;
#620 = VECTOR ( 'NONE', #138, 1000.000000000000000 ) ;
#621 = EDGE_LOOP ( 'NONE', ( #512, #651, #82, #577 ) ) ;
#622 = PLANE ( 'NONE',  #41 ) ;
#623 = EDGE_CURVE ( 'NONE', #1063, #467, #211, .T. ) ;
#624 = ORIENTED_EDGE ( 'NONE', *, *, #57, .T. ) ;
#625 = LINE ( 'NONE', #14, #1109 ) ;
#626 = LINE ( 'NONE', #238, #122 ) ;
#627 = VERTEX_POINT ( 'NONE', #329 ) ;
#628 = PLANE ( 'NONE',  #236 ) ;
#629 = ORIENTED_EDGE ( 'NONE', *, *, #798, .T. ) ;
#630 = DIRECTION ( 'NONE',  ( -0.000000000000000000, -0.000000000000000000, -1.000000000000000000 ) ) ;
#631 = CC_DESIGN_DATE_AND_TIME_ASSIGNMENT ( #128, #543, ( #18 ) ) ;
#632 = FACE_OUTER_BOUND ( 'NONE', #1295, .T. ) ;
#633 = ORIENTED_EDGE ( 'NONE', *, *, #327, .T. ) ;
#634 = LINE ( 'NONE', #838, #534 ) ;
#635 = ORIENTED_EDGE ( 'NONE', *, *, #436, .F. ) ;
#636 = DIRECTION ( 'NONE',  ( 0.000000000000000000, 0.000000000000000000, -1.000000000000000000 ) ) ;
#637 = EDGE_CURVE ( 'NONE', #627, #285, #1043, .T. ) ;
#638 = DIRECTION ( 'NONE',  ( 1.000000000000000000, -1.212151497188762632E-16, -0.000000000000000000 ) ) ;
#639 = VECTOR ( 'NONE', #1101, 1000.000000000000000 ) ;
#640 = VECTOR ( 'NONE', #1314, 1000.000000000000000 ) ;
#641 = ORIENTED_EDGE ( 'NONE', *, *, #78, .F. ) ;
#642 = CARTESIAN_POINT ( 'NONE',  ( -12.25000000000000000, 7.500961644777537685E-16, 10.00000000000000000 ) ) ;
#643 = VECTOR ( 'NONE', #739, 1000.000000000000000 ) ;
#644 = VERTEX_POINT ( 'NONE', #1234 ) ;
#645 = DIRECTION ( 'NONE',  ( 0.000000000000000000, 0.000000000000000000, -1.000000000000000000 ) ) ;
#646 = PRODUCT_DEFINITION_FORMATION_WITH_SPECIFIED_SOURCE ( 'ä»', '', #1010, .NOT_KNOWN. ) ;
#647 = COORDINATED_UNIVERSAL_TIME_OFFSET ( 8, 0, .AHEAD. ) ;
#648 = CARTESIAN_POINT ( 'NONE',  ( -10.75000000000000000, -11.10465650440566776, 6.500000000000000000 ) ) ;
#649 = LINE ( 'NONE', #1056, #806 ) ;
#650 = LINE ( 'NONE', #852, #297 ) ;
#651 = ORIENTED_EDGE ( 'NONE', *, *, #103, .T. ) ;
#652 = PLANE ( 'NONE',  #789 ) ;
#653 = APPROVAL_DATE_TIME ( #30, #569 ) ;
#654 = CARTESIAN_POINT ( 'NONE',  ( -12.25000000000000000, -2.999999999999999556, 10.00000000000000000 ) ) ;
#655 = ORIENTED_EDGE ( 'NONE', *, *, #195, .F. ) ;
#656 = FACE_OUTER_BOUND ( 'NONE', #197, .T. ) ;
#657 = ORIENTED_EDGE ( 'NONE', *, *, #73, .F. ) ;
#658 = CARTESIAN_POINT ( 'NONE',  ( -12.25000000000000000, 7.500961644777537685E-16, 10.00000000000000000 ) ) ;
#659 = EDGE_CURVE ( 'NONE', #972, #532, #735, .T. ) ;
#660 = PERSON_AND_ORGANIZATION ( #315, #600 ) ;
#661 = DIRECTION ( 'NONE',  ( -1.346834996876403308E-16, -1.000000000000000000, 0.000000000000000000 ) ) ;
#662 = ORIENTED_EDGE ( 'NONE', *, *, #586, .T. ) ;
#663 = LINE ( 'NONE', #151, #620 ) ;
#664 = VECTOR ( 'NONE', #271, 1000.000000000000114 ) ;
#665 = ORIENTED_EDGE ( 'NONE', *, *, #397, .T. ) ;
#666 = LINE ( 'NONE', #1168, #580 ) ;
#667 = AXIS2_PLACEMENT_3D ( 'NONE', #301, #1240, #124 ) ;
#668 = EDGE_CURVE ( 'NONE', #332, #552, #369, .T. ) ;
#669 = PERSON_AND_ORGANIZATION ( #315, #600 ) ;
#670 = CARTESIAN_POINT ( 'NONE',  ( 12.25000000000000000, 7.500961644777537685E-16, 10.00000000000000000 ) ) ;
#671 =( NAMED_UNIT ( * ) SI_UNIT ( $, .STERADIAN. ) SOLID_ANGLE_UNIT ( ) );
#672 = ORIENTED_EDGE ( 'NONE', *, *, #476, .F. ) ;
#673 = DIRECTION ( 'NONE',  ( 0.000000000000000000, 0.000000000000000000, 1.000000000000000000 ) ) ;
#674 = EDGE_CURVE ( 'NONE', #350, #906, #226, .T. ) ;
#675 = CARTESIAN_POINT ( 'NONE',  ( -10.75000000000000000, -14.10465650440566598, -2.632990618166809630E-15 ) ) ;
#676 = CARTESIAN_POINT ( 'NONE',  ( 10.74999999999999822, -12.10465650440566243, 6.500000000000000000 ) ) ;
#677 = VERTEX_POINT ( 'NONE', #610 ) ;
#678 = CARTESIAN_POINT ( 'NONE',  ( 12.25000000000000000, 7.500961644777537685E-16, 10.00000000000000000 ) ) ;
#679 = ADVANCED_FACE ( 'NONE', ( #429 ), #528, .T. ) ;
#680 = CARTESIAN_POINT ( 'NONE',  ( 12.25000000000000000, -0.9999999999999995559, 8.000000000000000000 ) ) ;
#681 = CARTESIAN_POINT ( 'NONE',  ( 10.74999999999999822, -14.10465650440566954, -2.000000000000000000 ) ) ;
#682 = ORIENTED_EDGE ( 'NONE', *, *, #975, .T. ) ;
#683 = DIRECTION ( 'NONE',  ( 0.000000000000000000, 0.000000000000000000, -1.000000000000000000 ) ) ;
#684 = DIRECTION ( 'NONE',  ( -1.000000000000000000, 0.000000000000000000, 0.000000000000000000 ) ) ;
#685 = AXIS2_PLACEMENT_3D ( 'NONE', #794, #799, #174 ) ;
#686 = VECTOR ( 'NONE', #1191, 1000.000000000000114 ) ;
#687 = CARTESIAN_POINT ( 'NONE',  ( -12.25000000000000000, -2.999999999999999556, 0.000000000000000000 ) ) ;
#688 = ORIENTED_EDGE ( 'NONE', *, *, #327, .F. ) ;
#689 = DIRECTION ( 'NONE',  ( 1.000000000000000000, 0.000000000000000000, 1.210272192541958616E-16 ) ) ;
#690 = CARTESIAN_POINT ( 'NONE',  ( 10.75000000000000000, -4.104656504405670425, -2.000000000000000000 ) ) ;
#691 = CARTESIAN_POINT ( 'NONE',  ( 9.500000000000000000, -0.9999999999999970024, -5.999999999999999112 ) ) ;
#692 = ORIENTED_EDGE ( 'NONE', *, *, #3, .T. ) ;
#693 = PLANE ( 'NONE',  #17 ) ;
#694 = EDGE_CURVE ( 'NONE', #603, #420, #1045, .T. ) ;
#695 = LINE ( 'NONE', #275, #788 ) ;
#696 = CARTESIAN_POINT ( 'NONE',  ( -12.25000000000000000, 2.999999999999999556, 8.000000000000000000 ) ) ;
#697 = ORIENTED_EDGE ( 'NONE', *, *, #1090, .F. ) ;
#698 = FACE_OUTER_BOUND ( 'NONE', #1298, .T. ) ;
#699 = DIRECTION ( 'NONE',  ( -0.000000000000000000, 0.000000000000000000, -1.000000000000000000 ) ) ;
#700 = AXIS2_PLACEMENT_3D ( 'NONE', #216, #245, #758 ) ;
#701 = EDGE_CURVE ( 'NONE', #1063, #912, #917, .T. ) ;
#702 = CIRCLE ( 'NONE', #407, 2.500000000000000444 ) ;
#703 = VECTOR ( 'NONE', #46, 1000.000000000000000 ) ;
#704 = EDGE_CURVE ( 'NONE', #1317, #242, #220, .T. ) ;
#705 = CARTESIAN_POINT ( 'NONE',  ( -10.75000000000000000, -11.10465650440566776, 0.000000000000000000 ) ) ;
#706 = ORIENTED_EDGE ( 'NONE', *, *, #73, .T. ) ;
#707 = CARTESIAN_POINT ( 'NONE',  ( 10.74999999999999822, -12.10465650440566243, -2.000000000000000000 ) ) ;
#708 = ORIENTED_EDGE ( 'NONE', *, *, #736, .T. ) ;
#709 = CARTESIAN_POINT ( 'NONE',  ( 9.000000000000001776, -4.104656504405672202, -6.999999999999999112 ) ) ;
#710 = EDGE_CURVE ( 'NONE', #298, #677, #625, .T. ) ;
#711 = LINE ( 'NONE', #705, #1069 ) ;
#712 = EDGE_LOOP ( 'NONE', ( #1267, #428, #199, #58 ) ) ;
#713 = DIRECTION ( 'NONE',  ( 0.000000000000000000, -1.000000000000000000, 0.000000000000000000 ) ) ;
#714 = VERTEX_POINT ( 'NONE', #307 ) ;
#715 = FACE_OUTER_BOUND ( 'NONE', #720, .T. ) ;
#716 = CARTESIAN_POINT ( 'NONE',  ( 9.500000000000000000, -0.9999999999999970024, -11.00000000000000000 ) ) ;
#717 = ADVANCED_FACE ( 'NONE', ( #715 ), #471, .T. ) ;
#718 = VERTEX_POINT ( 'NONE', #206 ) ;
#719 = DIRECTION ( 'NONE',  ( 0.000000000000000000, 0.000000000000000000, 1.000000000000000000 ) ) ;
#720 = EDGE_LOOP ( 'NONE', ( #1102, #979, #1257, #1042 ) ) ;
#721 = CARTESIAN_POINT ( 'NONE',  ( 10.75000000000000000, -4.104656504405670425, 0.000000000000000000 ) ) ;
#722 = CIRCLE ( 'NONE', #470, 2.999999999999999112 ) ;
#723 = CARTESIAN_POINT ( 'NONE',  ( -9.500000000000000000, -0.9999999999999945599, -5.999999999999999112 ) ) ;
#724 = VECTOR ( 'NONE', #404, 1000.000000000000000 ) ;
#725 = VECTOR ( 'NONE', #396, 1000.000000000000000 ) ;
#726 = ORIENTED_EDGE ( 'NONE', *, *, #78, .T. ) ;
#727 = DIRECTION ( 'NONE',  ( 1.000000000000000000, -0.000000000000000000, 0.000000000000000000 ) ) ;
#728 = ORIENTED_EDGE ( 'NONE', *, *, #761, .T. ) ;
#729 = CARTESIAN_POINT ( 'NONE',  ( 12.25000000000000000, -2.999999999999998668, 8.000000000000000000 ) ) ;
#730 = ADVANCED_FACE ( 'NONE', ( #515 ), #111, .T. ) ;
#731 = LINE ( 'NONE', #19, #294 ) ;
#732 = LINE ( 'NONE', #866, #258 ) ;
#733 = PLANE ( 'NONE',  #771 ) ;
#734 = ORIENTED_EDGE ( 'NONE', *, *, #10, .T. ) ;
#735 = LINE ( 'NONE', #97, #983 ) ;
#736 = EDGE_CURVE ( 'NONE', #32, #1085, #1288, .T. ) ;
#737 = DIRECTION ( 'NONE',  ( -0.000000000000000000, -0.000000000000000000, -1.000000000000000000 ) ) ;
#738 = ORIENTED_EDGE ( 'NONE', *, *, #376, .T. ) ;
#739 = DIRECTION ( 'NONE',  ( 1.346834996876403308E-16, 1.000000000000000000, -0.000000000000000000 ) ) ;
#740 = ORIENTED_EDGE ( 'NONE', *, *, #507, .F. ) ;
#741 = CARTESIAN_POINT ( 'NONE',  ( -6.999999999999999112, -0.9999999999999943379, -11.00000000000000000 ) ) ;
#742 = CARTESIAN_POINT ( 'NONE',  ( 12.25000000000000000, 7.500961644777537685E-16, 8.000000000000000000 ) ) ;
#743 = VECTOR ( 'NONE', #1083, 1000.000000000000000 ) ;
#744 = VECTOR ( 'NONE', #556, 1000.000000000000000 ) ;
#745 = ORIENTED_EDGE ( 'NONE', *, *, #1325, .T. ) ;
#746 = CARTESIAN_POINT ( 'NONE',  ( 9.000000000000001776, -4.104656504405672202, -1.999999999999999112 ) ) ;
#747 = CIRCLE ( 'NONE', #918, 2.999999999999999112 ) ;
#748 = ORIENTED_EDGE ( 'NONE', *, *, #1119, .F. ) ;
#749 = DIRECTION ( 'NONE',  ( -0.000000000000000000, -0.000000000000000000, 1.000000000000000000 ) ) ;
#750 = APPROVAL_ROLE ( '' ) ;
#751 = LINE ( 'NONE', #931, #962 ) ;
#752 = EDGE_CURVE ( 'NONE', #718, #298, #702, .T. ) ;
#753 = ORIENTED_EDGE ( 'NONE', *, *, #930, .T. ) ;
#754 = CARTESIAN_POINT ( 'NONE',  ( 10.74999999999999822, -14.10465650440566954, -2.000000000000000000 ) ) ;
#755 = ORIENTED_EDGE ( 'NONE', *, *, #319, .T. ) ;
#756 = CARTESIAN_POINT ( 'NONE',  ( -9.000000000000001776, -12.10465650440566954, -2.000000000000000888 ) ) ;
#757 = PERSON_AND_ORGANIZATION ( #315, #600 ) ;
#758 = DIRECTION ( 'NONE',  ( 0.000000000000000000, -0.8479983040050880216, 0.5299989400031799303 ) ) ;
#759 = ORIENTED_EDGE ( 'NONE', *, *, #118, .T. ) ;
#760 = DIRECTION ( 'NONE',  ( 1.000000000000000000, 0.000000000000000000, -0.000000000000000000 ) ) ;
#761 = EDGE_CURVE ( 'NONE', #1328, #1073, #441, .T. ) ;
#762 = VERTEX_POINT ( 'NONE', #566 ) ;
#763 = LINE ( 'NONE', #1173, #1152 ) ;
#764 = EDGE_CURVE ( 'NONE', #589, #966, #125, .T. ) ;
#765 = CARTESIAN_POINT ( 'NONE',  ( 10.75000000000000000, -4.104656504405670425, -2.000000000000000000 ) ) ;
#766 = LINE ( 'NONE', #687, #786 ) ;
#767 = CARTESIAN_POINT ( 'NONE',  ( -9.500000000000000000, -0.9999999999999945599, -5.999999999999999112 ) ) ;
#768 = AXIS2_PLACEMENT_3D ( 'NONE', #993, #62, #74 ) ;
#769 = ORIENTED_EDGE ( 'NONE', *, *, #1300, .F. ) ;
#770 = DIRECTION ( 'NONE',  ( -0.000000000000000000, -1.000000000000000000, -0.000000000000000000 ) ) ;
#771 = AXIS2_PLACEMENT_3D ( 'NONE', #204, #921, #210 ) ;
#772 = CALENDAR_DATE ( 2026, 20, 8 ) ;
#773 = LINE ( 'NONE', #284, #639 ) ;
#774 = CARTESIAN_POINT ( 'NONE',  ( -12.25000000000000000, -0.9999999999999995559, 8.000000000000000000 ) ) ;
#775 = ORIENTED_EDGE ( 'NONE', *, *, #103, .F. ) ;
#776 = DIRECTION ( 'NONE',  ( 1.000000000000000000, -0.000000000000000000, 0.000000000000000000 ) ) ;
#777 = ADVANCED_FACE ( 'NONE', ( #449 ), #435, .F. ) ;
#778 = DIRECTION ( 'NONE',  ( -0.000000000000000000, -0.000000000000000000, -1.000000000000000000 ) ) ;
#779 = CARTESIAN_POINT ( 'NONE',  ( 10.74999999999999822, -11.10465650440566776, 6.500000000000000000 ) ) ;
#780 = VERTEX_POINT ( 'NONE', #870 ) ;
#781 = DIRECTION ( 'NONE',  ( -1.000000000000000000, 0.000000000000000000, -0.000000000000000000 ) ) ;
#782 = EDGE_LOOP ( 'NONE', ( #145, #728, #945, #948 ) ) ;
#783 = CARTESIAN_POINT ( 'NONE',  ( -7.000000000000000888, -12.10465650440566954, -2.000000000000000888 ) ) ;
#784 = ORIENTED_EDGE ( 'NONE', *, *, #337, .F. ) ;
#785 = CARTESIAN_POINT ( 'NONE',  ( 10.74999999999999822, -14.10465650440566954, -2.000000000000000000 ) ) ;
#786 = VECTOR ( 'NONE', #588, 1000.000000000000000 ) ;
#787 = DIRECTION ( 'NONE',  ( 1.000000000000000000, -0.000000000000000000, -0.000000000000000000 ) ) ;
#788 = VECTOR ( 'NONE', #1305, 1000.000000000000000 ) ;
#789 = AXIS2_PLACEMENT_3D ( 'NONE', #35, #269, #893 ) ;
#790 = CC_DESIGN_APPROVAL ( #524, ( #18 ) ) ;
#791 = EDGE_CURVE ( 'NONE', #912, #409, #763, .T. ) ;
#792 = ORIENTED_EDGE ( 'NONE', *, *, #1325, .F. ) ;
#793 = DIRECTION ( 'NONE',  ( -1.000000000000000000, 0.000000000000000000, -0.000000000000000000 ) ) ;
#794 = CARTESIAN_POINT ( 'NONE',  ( -12.25000000000000000, 7.500961644777537685E-16, 8.000000000000000000 ) ) ;
#795 = DIRECTION ( 'NONE',  ( -1.000000000000000000, 0.000000000000000000, 0.000000000000000000 ) ) ;
#796 = ORIENTED_EDGE ( 'NONE', *, *, #442, .T. ) ;
#797 = FACE_OUTER_BOUND ( 'NONE', #876, .T. ) ;
#798 = EDGE_CURVE ( 'NONE', #941, #1328, #666, .T. ) ;
#799 = DIRECTION ( 'NONE',  ( 0.000000000000000000, 0.000000000000000000, 1.000000000000000000 ) ) ;
#800 = EDGE_CURVE ( 'NONE', #350, #285, #250, .T. ) ;
#801 = LINE ( 'NONE', #187, #488 ) ;
#802 = VERTEX_POINT ( 'NONE', #1260 ) ;
#803 = FACE_OUTER_BOUND ( 'NONE', #304, .T. ) ;
#804 = EDGE_LOOP ( 'NONE', ( #775, #438, #813, #1050 ) ) ;
#805 = CARTESIAN_POINT ( 'NONE',  ( -12.25000000000000000, 3.000000000000002665, 0.000000000000000000 ) ) ;
#806 = VECTOR ( 'NONE', #325, 1000.000000000000000 ) ;
#807 = EDGE_CURVE ( 'NONE', #1247, #851, #243, .T. ) ;
#808 = VECTOR ( 'NONE', #904, 1000.000000000000000 ) ;
#809 = AXIS2_PLACEMENT_3D ( 'NONE', #907, #224, #218 ) ;
#810 = CARTESIAN_POINT ( 'NONE',  ( -7.000000000000000888, -12.10465650440566954, -2.000000000000000888 ) ) ;
#811 = EDGE_LOOP ( 'NONE', ( #1194, #706, #464, #137, #65, #1226, #697, #823 ) ) ;
#812 = FACE_OUTER_BOUND ( 'NONE', #547, .T. ) ;
#813 = ORIENTED_EDGE ( 'NONE', *, *, #1316, .T. ) ;
#814 = CARTESIAN_POINT ( 'NONE',  ( 1.000000000000000000, -4.104656504405670425, -7.000000000000000000 ) ) ;
#815 = EDGE_CURVE ( 'NONE', #13, #445, #1262, .T. ) ;
#816 = FACE_OUTER_BOUND ( 'NONE', #712, .T. ) ;
#817 = ORIENTED_EDGE ( 'NONE', *, *, #847, .T. ) ;
#818 = CARTESIAN_POINT ( 'NONE',  ( 10.75000000000000000, -4.104656504405670425, -2.000000000000000000 ) ) ;
#819 = ORIENTED_EDGE ( 'NONE', *, *, #1136, .F. ) ;
#820 = CARTESIAN_POINT ( 'NONE',  ( 9.000000000000001776, -4.104656504405672202, -6.999999999999999112 ) ) ;
#821 = CARTESIAN_POINT ( 'NONE',  ( 6.999999999999999112, -0.9999999999999970024, -5.999999999999999112 ) ) ;
#822 = CC_DESIGN_PERSON_AND_ORGANIZATION_ASSIGNMENT ( #1054, #244, ( #1010 ) ) ;
#823 = ORIENTED_EDGE ( 'NONE', *, *, #1300, .T. ) ;
#824 = FACE_OUTER_BOUND ( 'NONE', #860, .T. ) ;
#825 = ORIENTED_EDGE ( 'NONE', *, *, #674, .F. ) ;
#826 = DIRECTION ( 'NONE',  ( -0.000000000000000000, -0.000000000000000000, 1.000000000000000000 ) ) ;
#827 = AXIS2_PLACEMENT_3D ( 'NONE', #919, #1027, #4 ) ;
#828 = DIRECTION ( 'NONE',  ( -1.000000000000000000, 1.346834996876403062E-16, -0.000000000000000000 ) ) ;
#829 = AXIS2_PLACEMENT_3D ( 'NONE', #183, #699, #1002 ) ;
#830 = CIRCLE ( 'NONE', #490, 2.500000000000000444 ) ;
#831 = ORIENTED_EDGE ( 'NONE', *, *, #815, .F. ) ;
#832 = CARTESIAN_POINT ( 'NONE',  ( -9.000000000000000000, -12.10465650440565888, -2.000000000000002665 ) ) ;
#833 = EDGE_CURVE ( 'NONE', #802, #1137, #572, .T. ) ;
#834 = ORIENTED_EDGE ( 'NONE', *, *, #798, .F. ) ;
#835 = LINE ( 'NONE', #1031, #1003 ) ;
#836 = CYLINDRICAL_SURFACE ( 'NONE', #579, 2.500000000000000444 ) ;
#837 = VERTEX_POINT ( 'NONE', #366 ) ;
#838 = CARTESIAN_POINT ( 'NONE',  ( -7.000000000000000888, -4.104656504405668649, -7.000000000000000888 ) ) ;
#839 = EDGE_CURVE ( 'NONE', #977, #593, #458, .T. ) ;
#840 = VERTEX_POINT ( 'NONE', #973 ) ;
#841 = CARTESIAN_POINT ( 'NONE',  ( 12.25000000000000000, 7.500961644777537685E-16, 0.000000000000000000 ) ) ;
#842 = CARTESIAN_POINT ( 'NONE',  ( 10.74999999999999822, -11.10465650440566776, 6.500000000000000000 ) ) ;
#843 = ORIENTED_EDGE ( 'NONE', *, *, #132, .T. ) ;
#844 = DIRECTION ( 'NONE',  ( -0.000000000000000000, -0.000000000000000000, -1.000000000000000000 ) ) ;
#845 = ORIENTED_EDGE ( 'NONE', *, *, #1032, .T. ) ;
#846 = DIRECTION ( 'NONE',  ( 0.000000000000000000, 0.000000000000000000, 1.000000000000000000 ) ) ;
#847 = EDGE_CURVE ( 'NONE', #966, #912, #1091, .T. ) ;
#848 = DIRECTION ( 'NONE',  ( -0.000000000000000000, -0.000000000000000000, -1.000000000000000000 ) ) ;
#849 = AXIS2_PLACEMENT_3D ( 'NONE', #670, #278, #1077 ) ;
#850 = AXIS2_PLACEMENT_3D ( 'NONE', #841, #53, #146 ) ;
#851 = VERTEX_POINT ( 'NONE', #335 ) ;
#852 = CARTESIAN_POINT ( 'NONE',  ( 10.75000000000000000, -4.104656504405670425, -2.000000000000000000 ) ) ;
#853 = AXIS2_PLACEMENT_3D ( 'NONE', #642, #1148, #254 ) ;
#854 = VERTEX_POINT ( 'NONE', #741 ) ;
#855 = DIRECTION ( 'NONE',  ( 1.141055565903906513E-16, 0.7071067811865475727, -0.7071067811865475727 ) ) ;
#856 = LOCAL_TIME ( 14, 14, 9.000000000000000000, #347 ) ;
#857 = APPROVAL_DATE_TIME ( #452, #524 ) ;
#858 = EDGE_CURVE ( 'NONE', #420, #1201, #1200, .T. ) ;
#859 = CARTESIAN_POINT ( 'NONE',  ( 10.74999999999999822, -12.10465650440566243, -2.000000000000000000 ) ) ;
#860 = EDGE_LOOP ( 'NONE', ( #34, #411, #165, #249 ) ) ;
#861 = CARTESIAN_POINT ( 'NONE',  ( -12.00000000000000000, -0.9999999999999945599, -11.00000000000000000 ) ) ;
#862 = ORIENTED_EDGE ( 'NONE', *, *, #185, .F. ) ;
#863 = CARTESIAN_POINT ( 'NONE',  ( -12.25000000000000000, 7.500961644777537685E-16, 0.000000000000000000 ) ) ;
#864 = CALENDAR_DATE ( 2026, 20, 8 ) ;
#865 = CARTESIAN_POINT ( 'NONE',  ( -10.75000000000000000, -4.104656504405667761, -2.000000000000002665 ) ) ;
#866 = CARTESIAN_POINT ( 'NONE',  ( -1.000000000000000000, -4.104656504405670425, -7.000000000000000000 ) ) ;
#867 = CARTESIAN_POINT ( 'NONE',  ( -16.10000000000000142, 3.000000000000003109, -11.00000000000000000 ) ) ;
#868 = PRODUCT_DEFINITION ( 'æœ', '', #646, #1214 ) ;
#869 = EDGE_LOOP ( 'NONE', ( #555, #662, #120, #1 ) ) ;
#870 = CARTESIAN_POINT ( 'NONE',  ( -16.10000000000000142, -4.104656504405666873, -11.00000000000000000 ) ) ;
#871 = PERSON_AND_ORGANIZATION_ROLE ( 'design_supplier' ) ;
#872 = LINE ( 'NONE', #1197, #664 ) ;
#873 = LINE ( 'NONE', #473, #559 ) ;
#874 = CIRCLE ( 'NONE', #387, 2.000000000000000000 ) ;
#875 = CIRCLE ( 'NONE', #829, 2.500000000000000444 ) ;
#876 = EDGE_LOOP ( 'NONE', ( #1276, #1022, #176, #792, #43, #784, #114, #1097, #657, #133 ) ) ;
#877 = CARTESIAN_POINT ( 'NONE',  ( -2.009201880505557728E-15, -14.10465650440566954, 0.000000000000000000 ) ) ;
#878 = ADVANCED_FACE ( 'NONE', ( #1270 ), #134, .F. ) ;
#879 = AXIS2_PLACEMENT_3D ( 'NONE', #785, #375, #689 ) ;
#880 = ORIENTED_EDGE ( 'NONE', *, *, #397, .F. ) ;
#881 = CARTESIAN_POINT ( 'NONE',  ( 12.25000000000000000, -2.999999999999998668, 0.000000000000000000 ) ) ;
#882 = CARTESIAN_POINT ( 'NONE',  ( -9.000000000000001776, -4.104656504405667761, -2.000000000000002665 ) ) ;
#883 = ORIENTED_EDGE ( 'NONE', *, *, #1285, .T. ) ;
#884 = CARTESIAN_POINT ( 'NONE',  ( -7.000000000000000888, -12.10465650440565888, -2.000000000000002220 ) ) ;
#885 = EDGE_CURVE ( 'NONE', #285, #1259, #353, .T. ) ;
#886 = DIRECTION ( 'NONE',  ( 0.000000000000000000, 0.000000000000000000, -1.000000000000000000 ) ) ;
#887 = ORIENTED_EDGE ( 'NONE', *, *, #1113, .F. ) ;
#888 = DIRECTION ( 'NONE',  ( -0.000000000000000000, -0.000000000000000000, 1.000000000000000000 ) ) ;
#889 = ORIENTED_EDGE ( 'NONE', *, *, #761, .F. ) ;
#890 = FACE_OUTER_BOUND ( 'NONE', #811, .T. ) ;
#891 = DIRECTION ( 'NONE',  ( 0.000000000000000000, -1.000000000000000000, 0.000000000000000000 ) ) ;
#892 = ORIENTED_EDGE ( 'NONE', *, *, #239, .T. ) ;
#893 = DIRECTION ( 'NONE',  ( 0.000000000000000000, 0.000000000000000000, -1.000000000000000000 ) ) ;
#894 = CIRCLE ( 'NONE', #596, 2.500000000000000444 ) ;
#895 = CARTESIAN_POINT ( 'NONE',  ( 7.000000000000002665, -4.104656504405669537, -7.000000000000000888 ) ) ;
#896 = AXIS2_PLACEMENT_3D ( 'NONE', #1332, #1128, #1122 ) ;
#897 = VECTOR ( 'NONE', #933, 1000.000000000000000 ) ;
#898 = APPROVAL_PERSON_ORGANIZATION ( #39, #524, #750 ) ;
#899 = ADVANCED_FACE ( 'NONE', ( #1161 ), #652, .T. ) ;
#900 = DIRECTION ( 'NONE',  ( -0.000000000000000000, -0.000000000000000000, 1.000000000000000000 ) ) ;
#901 = CC_DESIGN_PERSON_AND_ORGANIZATION_ASSIGNMENT ( #54, #338, ( #646 ) ) ;
#902 = ORIENTED_EDGE ( 'NONE', *, *, #319, .F. ) ;
#903 = DIRECTION ( 'NONE',  ( 0.000000000000000000, 0.000000000000000000, -1.000000000000000000 ) ) ;
#904 = DIRECTION ( 'NONE',  ( -0.000000000000000000, -0.000000000000000000, -1.000000000000000000 ) ) ;
#905 = DIRECTION ( 'NONE',  ( -0.000000000000000000, -0.000000000000000000, -1.000000000000000000 ) ) ;
#906 = VERTEX_POINT ( 'NONE', #177 ) ;
#907 = CARTESIAN_POINT ( 'NONE',  ( 12.25000000000000000, 7.500961644777537685E-16, 8.000000000000000000 ) ) ;
#908 = ADVANCED_FACE ( 'NONE', ( #1299 ), #172, .T. ) ;
#909 = ORIENTED_EDGE ( 'NONE', *, *, #257, .T. ) ;
#910 = CARTESIAN_POINT ( 'NONE',  ( -15.25000000000000000, 7.500961644777537685E-16, 8.000000000000000000 ) ) ;
#911 = CARTESIAN_POINT ( 'NONE',  ( 10.74999999999999822, -14.10465650440566954, 0.000000000000000000 ) ) ;
#912 = VERTEX_POINT ( 'NONE', #1188 ) ;
#913 = CARTESIAN_POINT ( 'NONE',  ( 16.10000000000000142, 2.999999999999999112, 0.000000000000000000 ) ) ;
#914 = EDGE_CURVE ( 'NONE', #1212, #854, #986, .T. ) ;
#915 = ORIENTED_EDGE ( 'NONE', *, *, #991, .F. ) ;
#916 = DIRECTION ( 'NONE',  ( -1.000000000000000000, 0.000000000000000000, 0.000000000000000000 ) ) ;
#917 = CIRCLE ( 'NONE', #1309, 2.000000000000000000 ) ;
#918 = AXIS2_PLACEMENT_3D ( 'NONE', #539, #964, #456 ) ;
#919 = CARTESIAN_POINT ( 'NONE',  ( 0.000000000000000000, 0.000000000000000000, -11.00000000000000000 ) ) ;
#920 = EDGE_LOOP ( 'NONE', ( #845, #384, #738 ) ) ;
#921 = DIRECTION ( 'NONE',  ( -0.000000000000000000, 0.5299989400031799303, 0.8479983040050880216 ) ) ;
#922 = ORIENTED_EDGE ( 'NONE', *, *, #659, .F. ) ;
#923 = CARTESIAN_POINT ( 'NONE',  ( 7.000000000000000000, -12.10465650440567309, -1.999999999999999112 ) ) ;
#924 = ADVANCED_FACE ( 'NONE', ( #1086 ), #693, .T. ) ;
#925 = DIRECTION ( 'NONE',  ( 0.000000000000000000, -0.000000000000000000, -1.000000000000000000 ) ) ;
#926 = ORIENTED_EDGE ( 'NONE', *, *, #1196, .F. ) ;
#927 = LINE ( 'NONE', #299, #126 ) ;
#928 = ORIENTED_EDGE ( 'NONE', *, *, #507, .T. ) ;
#929 = LINE ( 'NONE', #923, #1242 ) ;
#930 = EDGE_CURVE ( 'NONE', #644, #535, #590, .T. ) ;
#931 = CARTESIAN_POINT ( 'NONE',  ( -16.10000000000000142, -4.104656504405666873, -11.00000000000000000 ) ) ;
#932 = ORIENTED_EDGE ( 'NONE', *, *, #764, .F. ) ;
#933 = DIRECTION ( 'NONE',  ( 0.000000000000000000, 1.000000000000000000, 0.000000000000000000 ) ) ;
#934 = VERTEX_POINT ( 'NONE', #884 ) ;
#935 = DIRECTION ( 'NONE',  ( 1.000000000000000000, 0.000000000000000000, 0.000000000000000000 ) ) ;
#936 = VECTOR ( 'NONE', #1186, 1000.000000000000000 ) ;
#937 = CARTESIAN_POINT ( 'NONE',  ( -10.75000000000000000, -14.10465650440566598, -2.632990618166809630E-15 ) ) ;
#938 = VECTOR ( 'NONE', #1248, 1000.000000000000000 ) ;
#939 = ADVANCED_FACE ( 'NONE', ( #995 ), #1098, .T. ) ;
#940 = AXIS2_PLACEMENT_3D ( 'NONE', #311, #719, #1321 ) ;
#941 = VERTEX_POINT ( 'NONE', #83 ) ;
#942 = LINE ( 'NONE', #746, #1333 ) ;
#943 = CC_DESIGN_APPROVAL ( #569, ( #868 ) ) ;
#944 = EDGE_CURVE ( 'NONE', #13, #1212, #76, .T. ) ;
#945 = ORIENTED_EDGE ( 'NONE', *, *, #348, .T. ) ;
#946 = DIRECTION ( 'NONE',  ( 1.000000000000000000, 0.000000000000000000, -0.000000000000000000 ) ) ;
#947 = CARTESIAN_POINT ( 'NONE',  ( -12.25000000000000000, -2.999999999999999556, 8.000000000000000000 ) ) ;
#948 = ORIENTED_EDGE ( 'NONE', *, *, #461, .T. ) ;
#949 = PLANE ( 'NONE',  #1291 ) ;
#950 = ORIENTED_EDGE ( 'NONE', *, *, #1249, .F. ) ;
#951 = DIRECTION ( 'NONE',  ( -0.000000000000000000, 0.000000000000000000, 1.000000000000000000 ) ) ;
#952 = ADVANCED_FACE ( 'NONE', ( #797 ), #468, .F. ) ;
#953 = COORDINATED_UNIVERSAL_TIME_OFFSET ( 8, 0, .AHEAD. ) ;
#954 = DIRECTION ( 'NONE',  ( 1.346834996876403308E-16, 1.000000000000000000, 0.000000000000000000 ) ) ;
#955 = ORIENTED_EDGE ( 'NONE', *, *, #710, .T. ) ;
#956 = CARTESIAN_POINT ( 'NONE',  ( -12.25000000000000000, 1.000000000000000444, 8.000000000000000000 ) ) ;
#957 = VERTEX_POINT ( 'NONE', #594 ) ;
#958 = DIRECTION ( 'NONE',  ( -1.000000000000000000, 0.000000000000000000, 0.000000000000000000 ) ) ;
#959 = ADVANCED_FACE ( 'NONE', ( #59 ), #164, .F. ) ;
#960 = SECURITY_CLASSIFICATION_LEVEL ( 'unclassified' ) ;
#961 = CARTESIAN_POINT ( 'NONE',  ( 1.000000000000000000, -4.104656504405670425, -7.000000000000000000 ) ) ;
#962 = VECTOR ( 'NONE', #828, 1000.000000000000000 ) ;
#963 = ORIENTED_EDGE ( 'NONE', *, *, #991, .T. ) ;
#964 = DIRECTION ( 'NONE',  ( -0.000000000000000000, -0.000000000000000000, -1.000000000000000000 ) ) ;
#965 = CIRCLE ( 'NONE', #1265, 2.000000000000000000 ) ;
#966 = VERTEX_POINT ( 'NONE', #1193 ) ;
#967 = CARTESIAN_POINT ( 'NONE',  ( -1.953323889007242657E-15, -12.10465650440566066, 6.500000000000000000 ) ) ;
#968 = CARTESIAN_POINT ( 'NONE',  ( 12.25000000000000000, -2.999999999999998668, 10.00000000000000000 ) ) ;
#969 = APPROVAL ( #1076, 'æœª' ) ;
#970 = CARTESIAN_POINT ( 'NONE',  ( 12.00000000000000000, -0.9999999999999967804, -11.00000000000000000 ) ) ;
#971 = CARTESIAN_POINT ( 'NONE',  ( 7.000000000000000000, -1.423362852083534294E-15, 1.067522139062650869E-15 ) ) ;
#972 = VERTEX_POINT ( 'NONE', #578 ) ;
#973 = CARTESIAN_POINT ( 'NONE',  ( 12.25000000000000000, 1.000000000000000222, 10.00000000000000000 ) ) ;
#974 = MECHANICAL_CONTEXT ( 'NONE', #251, 'mechanical' ) ;
#975 = EDGE_CURVE ( 'NONE', #467, #966, #1026, .T. ) ;
#976 = DIRECTION ( 'NONE',  ( 0.000000000000000000, 0.000000000000000000, -1.000000000000000000 ) ) ;
#977 = VERTEX_POINT ( 'NONE', #1318 ) ;
#978 = DIRECTION ( 'NONE',  ( -0.000000000000000000, -0.000000000000000000, -1.000000000000000000 ) ) ;
#979 = ORIENTED_EDGE ( 'NONE', *, *, #623, .F. ) ;
#980 = DIRECTION ( 'NONE',  ( -0.000000000000000000, -1.000000000000000000, -0.000000000000000000 ) ) ;
#981 = CARTESIAN_POINT ( 'NONE',  ( 10.74999999999999822, -11.10465650440566776, 0.000000000000000000 ) ) ;
#982 = VECTOR ( 'NONE', #1178, 1000.000000000000000 ) ;
#983 = VECTOR ( 'NONE', #2, 1000.000000000000114 ) ;
#984 = ORIENTED_EDGE ( 'NONE', *, *, #606, .F. ) ;
#985 = DIRECTION ( 'NONE',  ( -0.000000000000000000, -0.000000000000000000, -1.000000000000000000 ) ) ;
#986 = CIRCLE ( 'NONE', #408, 2.500000000000000444 ) ;
#987 = CARTESIAN_POINT ( 'NONE',  ( 9.000000000000001776, -1.423362852083534294E-15, 1.067522139062650869E-15 ) ) ;
#988 = DIRECTION ( 'NONE',  ( -1.000000000000000000, 1.613696256722611405E-16, -1.210272192541958616E-16 ) ) ;
#989 = ORIENTED_EDGE ( 'NONE', *, *, #436, .T. ) ;
#990 = DIRECTION ( 'NONE',  ( 1.000000000000000000, -1.613696256722611405E-16, 1.210272192541958616E-16 ) ) ;
#991 = EDGE_CURVE ( 'NONE', #644, #837, #1304, .T. ) ;
#992 = DIRECTION ( 'NONE',  ( 1.000000000000000000, -1.613696256722611405E-16, 1.210272192541958616E-16 ) ) ;
#993 = CARTESIAN_POINT ( 'NONE',  ( -9.500000000000000000, -0.9999999999999945599, -5.999999999999999112 ) ) ;
#994 = ORIENTED_EDGE ( 'NONE', *, *, #37, .T. ) ;
#995 = FACE_OUTER_BOUND ( 'NONE', #609, .T. ) ;
#996 = PLANE ( 'NONE',  #235 ) ;
#997 = ADVANCED_FACE ( 'NONE', ( #698 ), #480, .F. ) ;
#998 = DIRECTION ( 'NONE',  ( -1.000000000000000000, -0.000000000000000000, -0.000000000000000000 ) ) ;
#999 = ORIENTED_EDGE ( 'NONE', *, *, #764, .T. ) ;
#1000 = CARTESIAN_POINT ( 'NONE',  ( -2.009201880505558517E-15, -14.10465650440566954, 7.372574772901430151E-15 ) ) ;
#1001 = AXIS2_PLACEMENT_3D ( 'NONE', #723, #905, #1319 ) ;
#1002 = DIRECTION ( 'NONE',  ( 1.000000000000000000, 0.000000000000000000, 0.000000000000000000 ) ) ;
#1003 = VECTOR ( 'NONE', #1018, 1000.000000000000000 ) ;
#1004 = AXIS2_PLACEMENT_3D ( 'NONE', #282, #903, #793 ) ;
#1005 = LOCAL_TIME ( 14, 14, 9.000000000000000000, #550 ) ;
#1006 = EDGE_CURVE ( 'NONE', #532, #957, #190, .T. ) ;
#1007 = CARTESIAN_POINT ( 'NONE',  ( -1.000000000000000000, -4.104656504405670425, -2.000000000000000000 ) ) ;
#1008 = VERTEX_POINT ( 'NONE', #385 ) ;
#1009 = DIRECTION ( 'NONE',  ( 1.000000000000000000, -1.212151497188762632E-16, -0.000000000000000000 ) ) ;
#1010 = PRODUCT ( '\X2\76d25b5062639501\X0\', '\X2\76d25b5062639501\X0\', '', ( #974 ) ) ;
#1011 = EDGE_LOOP ( 'NONE', ( #1172, #317, #755, #448, #708 ) ) ;
#1012 = FACE_OUTER_BOUND ( 'NONE', #1237, .T. ) ;
#1013 = DIRECTION ( 'NONE',  ( -1.000000000000000000, -0.000000000000000000, -0.000000000000000000 ) ) ;
#1014 = ADVANCED_FACE ( 'NONE', ( #1202 ), #1093, .F. ) ;
#1015 = VERTEX_POINT ( 'NONE', #115 ) ;
#1016 = FACE_OUTER_BOUND ( 'NONE', #1141, .T. ) ;
#1017 = ORIENTED_EDGE ( 'NONE', *, *, #266, .T. ) ;
#1018 = DIRECTION ( 'NONE',  ( -1.000000000000000000, -0.000000000000000000, -0.000000000000000000 ) ) ;
#1019 = CARTESIAN_POINT ( 'NONE',  ( 10.74999999999999822, -14.10465650440566954, -2.000000000000000000 ) ) ;
#1020 = ORIENTED_EDGE ( 'NONE', *, *, #1282, .T. ) ;
#1021 = CYLINDRICAL_SURFACE ( 'NONE', #1047, 2.000000000000000000 ) ;
#1022 = ORIENTED_EDGE ( 'NONE', *, *, #348, .F. ) ;
#1023 = DIRECTION ( 'NONE',  ( 0.000000000000000000, 0.000000000000000000, 1.000000000000000000 ) ) ;
#1024 = VECTOR ( 'NONE', #778, 1000.000000000000000 ) ;
#1025 = AXIS2_PLACEMENT_3D ( 'NONE', #213, #322, #946 ) ;
#1026 = CIRCLE ( 'NONE', #61, 2.000000000000000000 ) ;
#1027 = DIRECTION ( 'NONE',  ( 0.000000000000000000, 0.000000000000000000, 1.000000000000000000 ) ) ;
#1028 = ORIENTED_EDGE ( 'NONE', *, *, #160, .T. ) ;
#1029 = CARTESIAN_POINT ( 'NONE',  ( -2.009201880505558517E-15, -14.10465650440566954, 7.372574772901430151E-15 ) ) ;
#1030 = ORIENTED_EDGE ( 'NONE', *, *, #637, .F. ) ;
#1031 = CARTESIAN_POINT ( 'NONE',  ( 1.000000000000000000, -12.10465650440567131, -2.000000000000000000 ) ) ;
#1032 = EDGE_CURVE ( 'NONE', #1317, #977, #1115, .T. ) ;
#1033 = DIRECTION ( 'NONE',  ( -0.000000000000000000, -0.000000000000000000, 1.000000000000000000 ) ) ;
#1034 = ORIENTED_EDGE ( 'NONE', *, *, #701, .F. ) ;
#1035 = DIRECTION ( 'NONE',  ( 1.000000000000000000, 0.000000000000000000, 1.210272192541958616E-16 ) ) ;
#1036 = ADVANCED_BREP_SHAPE_REPRESENTATION ( '\X2\76d25b5062639501\X0\', ( #1080, #127 ), #42 ) ;
#1037 = ORIENTED_EDGE ( 'NONE', *, *, #752, .T. ) ;
#1038 = EDGE_CURVE ( 'NONE', #75, #677, #511, .T. ) ;
#1039 = FACE_OUTER_BOUND ( 'NONE', #173, .T. ) ;
#1040 = EDGE_LOOP ( 'NONE', ( #273, #883, #26 ) ) ;
#1041 = DIRECTION ( 'NONE',  ( -0.000000000000000000, 0.8479983040050880216, -0.5299989400031799303 ) ) ;
#1042 = ORIENTED_EDGE ( 'NONE', *, *, #847, .F. ) ;
#1043 = LINE ( 'NONE', #1223, #259 ) ;
#1044 = AXIS2_PLACEMENT_3D ( 'NONE', #161, #574, #201 ) ;
#1045 = CIRCLE ( 'NONE', #277, 2.999999999999999112 ) ;
#1046 = CARTESIAN_POINT ( 'NONE',  ( 12.25000000000000000, -0.9999999999999995559, 10.00000000000000000 ) ) ;
#1047 = AXIS2_PLACEMENT_3D ( 'NONE', #101, #1233, #109 ) ;
#1048 = AXIS2_PLACEMENT_3D ( 'NONE', #774, #378, #170 ) ;
#1049 = ADVANCED_FACE ( 'NONE', ( #504 ), #733, .F. ) ;
#1050 = ORIENTED_EDGE ( 'NONE', *, *, #694, .T. ) ;
#1051 = FACE_OUTER_BOUND ( 'NONE', #541, .T. ) ;
#1052 = ORIENTED_EDGE ( 'NONE', *, *, #704, .T. ) ;
#1053 = DIRECTION ( 'NONE',  ( 1.000000000000000000, 0.000000000000000000, 0.000000000000000000 ) ) ;
#1054 = PERSON_AND_ORGANIZATION ( #315, #600 ) ;
#1055 = CARTESIAN_POINT ( 'NONE',  ( 10.74999999999999822, -12.10465650440566243, -2.000000000000000000 ) ) ;
#1056 = CARTESIAN_POINT ( 'NONE',  ( 10.74999999999999822, -14.10465650440566954, 0.000000000000000000 ) ) ;
#1057 = DIRECTION ( 'NONE',  ( 1.000000000000000000, -0.000000000000000000, 0.000000000000000000 ) ) ;
#1058 = ADVANCED_FACE ( 'NONE', ( #812 ), #622, .F. ) ;
#1059 = VERTEX_POINT ( 'NONE', #1227 ) ;
#1060 = CARTESIAN_POINT ( 'NONE',  ( -10.75000000000000000, -14.10465650440566598, 6.500000000000000000 ) ) ;
#1061 = PERSON_AND_ORGANIZATION_ROLE ( 'creator' ) ;
#1062 = LINE ( 'NONE', #842, #1261 ) ;
#1063 = VERTEX_POINT ( 'NONE', #1338 ) ;
#1064 = DIRECTION ( 'NONE',  ( -0.000000000000000000, 0.000000000000000000, -1.000000000000000000 ) ) ;
#1065 = ORIENTED_EDGE ( 'NONE', *, *, #1113, .T. ) ;
#1066 = DIRECTION ( 'NONE',  ( -0.000000000000000000, -1.000000000000000000, -0.000000000000000000 ) ) ;
#1067 = EDGE_CURVE ( 'NONE', #906, #644, #1135, .T. ) ;
#1068 = CARTESIAN_POINT ( 'NONE',  ( -6.999999999999999112, -0.9999999999999943379, -5.999999999999999112 ) ) ;
#1069 = VECTOR ( 'NONE', #998, 1000.000000000000000 ) ;
#1070 = ORIENTED_EDGE ( 'NONE', *, *, #614, .T. ) ;
#1071 = FACE_OUTER_BOUND ( 'NONE', #514, .T. ) ;
#1072 = VECTOR ( 'NONE', #1009, 1000.000000000000000 ) ;
#1073 = VERTEX_POINT ( 'NONE', #832 ) ;
#1074 = DIRECTION ( 'NONE',  ( -0.000000000000000000, 0.000000000000000000, -1.000000000000000000 ) ) ;
#1075 = EDGE_CURVE ( 'NONE', #1008, #802, #927, .T. ) ;
#1076 = APPROVAL_STATUS ( 'not_yet_approved' ) ;
#1077 = DIRECTION ( 'NONE',  ( 1.000000000000000000, 0.000000000000000000, 0.000000000000000000 ) ) ;
#1078 = ORIENTED_EDGE ( 'NONE', *, *, #1209, .F. ) ;
#1079 = CARTESIAN_POINT ( 'NONE',  ( -16.10000000000000142, -4.104656504405666873, 0.000000000000000000 ) ) ;
#1080 = MANIFOLD_SOLID_BREP ( '\X2\52079664\X0\-\X2\62c94f38\X0\1', #99 ) ;
#1081 = EDGE_CURVE ( 'NONE', #1269, #1059, #198, .T. ) ;
#1082 = PRODUCT_RELATED_PRODUCT_CATEGORY ( 'detail', '', ( #1010 ) ) ;
#1083 = DIRECTION ( 'NONE',  ( 0.000000000000000000, 0.000000000000000000, -1.000000000000000000 ) ) ;
#1084 = LINE ( 'NONE', #575, #1183 ) ;
#1085 = VERTEX_POINT ( 'NONE', #6 ) ;
#1086 = FACE_OUTER_BOUND ( 'NONE', #607, .T. ) ;
#1087 = PLANE ( 'NONE',  #447 ) ;
#1088 = PLANE ( 'NONE',  #1313 ) ;
#1089 = VECTOR ( 'NONE', #509, 1000.000000000000000 ) ;
#1090 = EDGE_CURVE ( 'NONE', #1259, #1303, #526, .T. ) ;
#1091 = CIRCLE ( 'NONE', #510, 0.9999999999999991118 ) ;
#1092 = ORIENTED_EDGE ( 'NONE', *, *, #227, .T. ) ;
#1093 = PLANE ( 'NONE',  #879 ) ;
#1094 = VECTOR ( 'NONE', #519, 1000.000000000000000 ) ;
#1095 = DIRECTION ( 'NONE',  ( 0.000000000000000000, -1.000000000000000000, 0.000000000000000000 ) ) ;
#1096 = CARTESIAN_POINT ( 'NONE',  ( 12.25000000000000000, 2.999999999999999556, 10.00000000000000000 ) ) ;
#1097 = ORIENTED_EDGE ( 'NONE', *, *, #67, .F. ) ;
#1098 = PLANE ( 'NONE',  #1180 ) ;
#1099 = ADVANCED_FACE ( 'NONE', ( #1246 ), #323, .T. ) ;
#1100 = FACE_OUTER_BOUND ( 'NONE', #263, .T. ) ;
#1101 = DIRECTION ( 'NONE',  ( -0.000000000000000000, -1.000000000000000000, -0.000000000000000000 ) ) ;
#1102 = ORIENTED_EDGE ( 'NONE', *, *, #975, .F. ) ;
#1103 = DIRECTION ( 'NONE',  ( 0.000000000000000000, 0.000000000000000000, -1.000000000000000000 ) ) ;
#1104 = LINE ( 'NONE', #765, #1177 ) ;
#1105 = ADVANCED_FACE ( 'NONE', ( #1016 ), #628, .F. ) ;
#1106 = CARTESIAN_POINT ( 'NONE',  ( -9.000000000000001776, -4.104656504405668649, -7.000000000000000888 ) ) ;
#1107 = ORIENTED_EDGE ( 'NONE', *, *, #402, .T. ) ;
#1108 = DIRECTION ( 'NONE',  ( 1.613696256722611405E-16, 1.000000000000000000, 0.000000000000000000 ) ) ;
#1109 = VECTOR ( 'NONE', #630, 1000.000000000000000 ) ;
#1110 = DIRECTION ( 'NONE',  ( 1.000000000000000000, 0.000000000000000000, 0.000000000000000000 ) ) ;
#1111 = TOROIDAL_SURFACE ( 'NONE', #685, 0.9999999999999995559, 2.000000000000000000 ) ;
#1112 = VECTOR ( 'NONE', #326, 1000.000000000000000 ) ;
#1113 = EDGE_CURVE ( 'NONE', #851, #603, #513, .T. ) ;
#1114 = EDGE_LOOP ( 'NONE', ( #892, #825, #740, #796 ) ) ;
#1115 = LINE ( 'NONE', #499, #1112 ) ;
#1116 = ORIENTED_EDGE ( 'NONE', *, *, #22, .F. ) ;
#1117 = LINE ( 'NONE', #820, #938 ) ;
#1118 = CYLINDRICAL_SURFACE ( 'NONE', #1241, 2.500000000000000444 ) ;
#1119 = EDGE_CURVE ( 'NONE', #714, #306, #1329, .T. ) ;
#1120 = ORIENTED_EDGE ( 'NONE', *, *, #1038, .T. ) ;
#1121 = ORIENTED_EDGE ( 'NONE', *, *, #402, .F. ) ;
#1122 = DIRECTION ( 'NONE',  ( 1.000000000000000000, 0.000000000000000000, 0.000000000000000000 ) ) ;
#1123 = LINE ( 'NONE', #1326, #1089 ) ;
#1124 = ORIENTED_EDGE ( 'NONE', *, *, #885, .F. ) ;
#1125 = DIRECTION ( 'NONE',  ( -1.000000000000000000, 0.000000000000000000, 0.000000000000000000 ) ) ;
#1126 = ADVANCED_FACE ( 'NONE', ( #803 ), #581, .T. ) ;
#1127 = EDGE_LOOP ( 'NONE', ( #1232, #880, #100, #70 ) ) ;
#1128 = DIRECTION ( 'NONE',  ( -0.000000000000000000, -0.000000000000000000, -1.000000000000000000 ) ) ;
#1129 = VECTOR ( 'NONE', #891, 1000.000000000000000 ) ;
#1130 = AXIS2_PLACEMENT_3D ( 'NONE', #264, #855, #360 ) ;
#1131 = VECTOR ( 'NONE', #144, 1000.000000000000000 ) ;
#1132 = LOCAL_TIME ( 14, 14, 9.000000000000000000, #647 ) ;
#1133 = FACE_BOUND ( 'NONE', #45, .T. ) ;
#1134 = VERTEX_POINT ( 'NONE', #707 ) ;
#1135 = LINE ( 'NONE', #415, #1094 ) ;
#1136 = EDGE_CURVE ( 'NONE', #527, #1008, #608, .T. ) ;
#1137 = VERTEX_POINT ( 'NONE', #305 ) ;
#1138 = DIRECTION ( 'NONE',  ( 9.523561594306672852E-17, 0.7071067811865474617, 0.7071067811865474617 ) ) ;
#1139 = ADVANCED_FACE ( 'NONE', ( #824 ), #1021, .T. ) ;
#1140 = PLANE ( 'NONE',  #147 ) ;
#1141 = EDGE_LOOP ( 'NONE', ( #91, #219, #1028, #745 ) ) ;
#1142 = DIRECTION ( 'NONE',  ( 1.000000000000000000, -1.613696256722611405E-16, 1.210272192541958616E-16 ) ) ;
#1143 = EDGE_LOOP ( 'NONE', ( #1251, #498 ) ) ;
#1144 = CARTESIAN_POINT ( 'NONE',  ( 0.9999999999999991118, -12.10465650440566066, -2.000000000000001332 ) ) ;
#1145 = EDGE_CURVE ( 'NONE', #854, #1212, #830, .T. ) ;
#1146 = DIRECTION ( 'NONE',  ( -0.000000000000000000, 0.5299989400031799303, 0.8479983040050880216 ) ) ;
#1147 = EDGE_LOOP ( 'NONE', ( #290, #1164, #7, #246 ) ) ;
#1148 = DIRECTION ( 'NONE',  ( 0.000000000000000000, 0.000000000000000000, 1.000000000000000000 ) ) ;
#1149 = ORIENTED_EDGE ( 'NONE', *, *, #280, .T. ) ;
#1150 = DIRECTION ( 'NONE',  ( 1.000000000000000000, 0.000000000000000000, 0.000000000000000000 ) ) ;
#1151 = VECTOR ( 'NONE', #737, 1000.000000000000000 ) ;
#1152 = VECTOR ( 'NONE', #344, 1000.000000000000000 ) ;
#1153 = APPROVAL_ROLE ( '' ) ;
#1154 = EDGE_CURVE ( 'NONE', #535, #1328, #650, .T. ) ;
#1155 = PLANE ( 'NONE',  #700 ) ;
#1156 = AXIS2_PLACEMENT_3D ( 'NONE', #1238, #95, #1125 ) ;
#1157 = LOCAL_TIME ( 14, 14, 9.000000000000000000, #953 ) ;
#1158 = ORIENTED_EDGE ( 'NONE', *, *, #22, .T. ) ;
#1159 = CARTESIAN_POINT ( 'NONE',  ( -16.10000000000000142, 3.000000000000003109, -11.00000000000000000 ) ) ;
#1160 = ORIENTED_EDGE ( 'NONE', *, *, #560, .T. ) ;
#1161 = FACE_OUTER_BOUND ( 'NONE', #920, .T. ) ;
#1162 = CALENDAR_DATE ( 2026, 20, 8 ) ;
#1163 = LINE ( 'NONE', #654, #1151 ) ;
#1164 = ORIENTED_EDGE ( 'NONE', *, *, #1196, .T. ) ;
#1165 = CARTESIAN_POINT ( 'NONE',  ( -9.500000000000000000, -0.9999999999999945599, -11.00000000000000000 ) ) ;
#1166 = ADVANCED_FACE ( 'NONE', ( #656 ), #341, .T. ) ;
#1167 = ORIENTED_EDGE ( 'NONE', *, *, #1174, .F. ) ;
#1168 = CARTESIAN_POINT ( 'NONE',  ( -9.000000000000001776, -4.104656504405668649, -2.000000000000000888 ) ) ;
#1169 = LINE ( 'NONE', #968, #724 ) ;
#1170 = VERTEX_POINT ( 'NONE', #231 ) ;
#1171 = LINE ( 'NONE', #754, #643 ) ;
#1172 = ORIENTED_EDGE ( 'NONE', *, *, #37, .F. ) ;
#1173 = CARTESIAN_POINT ( 'NONE',  ( 12.25000000000000000, -0.9999999999999995559, 10.00000000000000000 ) ) ;
#1174 = EDGE_CURVE ( 'NONE', #780, #1247, #1275, .T. ) ;
#1175 = APPLICATION_PROTOCOL_DEFINITION ( 'international standard', 'config_control_design', 1994, #336 ) ;
#1176 = VECTOR ( 'NONE', #289, 1000.000000000000000 ) ;
#1177 = VECTOR ( 'NONE', #992, 1000.000000000000000 ) ;
#1178 = DIRECTION ( 'NONE',  ( -1.000000000000000000, 1.613696256722611405E-16, -1.210272192541958616E-16 ) ) ;
#1179 = DIRECTION ( 'NONE',  ( 0.000000000000000000, -0.000000000000000000, 1.000000000000000000 ) ) ;
#1180 = AXIS2_PLACEMENT_3D ( 'NONE', #585, #1103, #781 ) ;
#1181 = ORIENTED_EDGE ( 'NONE', *, *, #427, .T. ) ;
#1182 = CARTESIAN_POINT ( 'NONE',  ( -12.25000000000000000, 7.500961644777537685E-16, 10.00000000000000000 ) ) ;
#1183 = VECTOR ( 'NONE', #272, 1000.000000000000000 ) ;
#1184 = ADVANCED_FACE ( 'NONE', ( #1051 ), #433, .F. ) ;
#1185 = APPROVAL_STATUS ( 'not_yet_approved' ) ;
#1186 = DIRECTION ( 'NONE',  ( -0.000000000000000000, 1.000000000000000000, -0.000000000000000000 ) ) ;
#1187 = VERTEX_POINT ( 'NONE', #533 ) ;
#1188 = CARTESIAN_POINT ( 'NONE',  ( -12.25000000000000000, -0.9999999999999988898, 10.00000000000000000 ) ) ;
#1189 = EDGE_CURVE ( 'NONE', #584, #714, #942, .T. ) ;
#1190 = CARTESIAN_POINT ( 'NONE',  ( 9.000000000000001776, -12.10465650440566243, -2.000000000000000000 ) ) ;
#1191 = DIRECTION ( 'NONE',  ( -9.523561594306672852E-17, -0.7071067811865474617, -0.7071067811865474617 ) ) ;
#1192 = ORIENTED_EDGE ( 'NONE', *, *, #257, .F. ) ;
#1193 = CARTESIAN_POINT ( 'NONE',  ( -13.25000000000000000, 9.950255243072242620E-16, 10.00000000000000000 ) ) ;
#1194 = ORIENTED_EDGE ( 'NONE', *, *, #3, .F. ) ;
#1195 = DIRECTION ( 'NONE',  ( -0.000000000000000000, -0.000000000000000000, -1.000000000000000000 ) ) ;
#1196 = EDGE_CURVE ( 'NONE', #1247, #527, #131, .T. ) ;
#1197 = CARTESIAN_POINT ( 'NONE',  ( -10.75000000000000000, -14.10465650440566776, 6.865491396577464648E-15 ) ) ;
#1198 =( NAMED_UNIT ( * ) PLANE_ANGLE_UNIT ( ) SI_UNIT ( $, .RADIAN. ) );
#1199 = AXIS2_PLACEMENT_3D ( 'NONE', #937, #1244, #544 ) ;
#1200 = CIRCLE ( 'NONE', #102, 2.999999999999999112 ) ;
#1201 = VERTEX_POINT ( 'NONE', #1268 ) ;
#1202 = FACE_OUTER_BOUND ( 'NONE', #782, .T. ) ;
#1203 = VECTOR ( 'NONE', #410, 1000.000000000000000 ) ;
#1204 = DIRECTION ( 'NONE',  ( 0.000000000000000000, 0.000000000000000000, -1.000000000000000000 ) ) ;
#1205 = DIRECTION ( 'NONE',  ( -0.000000000000000000, 0.8479983040050880216, -0.5299989400031799303 ) ) ;
#1206 = PRODUCT_DEFINITION_SHAPE ( 'NONE', 'NONE',  #868 ) ;
#1207 = ORIENTED_EDGE ( 'NONE', *, *, #178, .T. ) ;
#1208 = DIRECTION ( 'NONE',  ( -1.000000000000000000, 1.224646799147353454E-16, 0.000000000000000000 ) ) ;
#1209 = EDGE_CURVE ( 'NONE', #467, #300, #747, .T. ) ;
#1210 = DIRECTION ( 'NONE',  ( 1.000000000000000000, -0.000000000000000000, 0.000000000000000000 ) ) ;
#1211 = DIRECTION ( 'NONE',  ( 0.000000000000000000, -1.000000000000000000, 0.000000000000000000 ) ) ;
#1212 = VERTEX_POINT ( 'NONE', #861 ) ;
#1213 = DIRECTION ( 'NONE',  ( 1.224646799147353207E-16, 1.000000000000000000, -0.000000000000000000 ) ) ;
#1214 = DESIGN_CONTEXT ( 'detailed design', #336, 'design' ) ;
#1215 = ADVANCED_FACE ( 'NONE', ( #247 ), #949, .F. ) ;
#1216 = CARTESIAN_POINT ( 'NONE',  ( 16.10000000000000142, 2.999999999999999112, -11.00000000000000000 ) ) ;
#1217 = DIRECTION ( 'NONE',  ( -0.000000000000000000, -0.000000000000000000, -1.000000000000000000 ) ) ;
#1218 = VECTOR ( 'NONE', #523, 1000.000000000000000 ) ;
#1219 = ORIENTED_EDGE ( 'NONE', *, *, #185, .T. ) ;
#1220 = CARTESIAN_POINT ( 'NONE',  ( 10.74999999999999822, -14.10465650440566598, 6.500000000000000000 ) ) ;
#1221 = AXIS2_PLACEMENT_3D ( 'NONE', #521, #978, #958 ) ;
#1222 = ORIENTED_EDGE ( 'NONE', *, *, #522, .F. ) ;
#1223 = CARTESIAN_POINT ( 'NONE',  ( -10.75000000000000000, -12.10465650440565888, 6.500000000000000000 ) ) ;
#1224 = AXIS2_PLACEMENT_3D ( 'NONE', #956, #760, #1252 ) ;
#1225 = CARTESIAN_POINT ( 'NONE',  ( 9.500000000000000000, -0.9999999999999970024, -5.999999999999999112 ) ) ;
#1226 = ORIENTED_EDGE ( 'NONE', *, *, #442, .F. ) ;
#1227 = CARTESIAN_POINT ( 'NONE',  ( 10.74999999999999822, -14.10465650440566954, 8.673617379884035472E-15 ) ) ;
#1228 = ORIENTED_EDGE ( 'NONE', *, *, #86, .T. ) ;
#1229 = DIRECTION ( 'NONE',  ( -1.000000000000000000, -0.000000000000000000, -0.000000000000000000 ) ) ;
#1230 = EDGE_CURVE ( 'NONE', #934, #563, #634, .T. ) ;
#1231 = PLANE ( 'NONE',  #554 ) ;
#1232 = ORIENTED_EDGE ( 'NONE', *, *, #1075, .T. ) ;
#1233 = DIRECTION ( 'NONE',  ( 1.000000000000000000, 0.000000000000000000, -0.000000000000000000 ) ) ;
#1234 = CARTESIAN_POINT ( 'NONE',  ( -10.75000000000000000, -4.104656504405667761, 0.000000000000000000 ) ) ;
#1235 = DIRECTION ( 'NONE',  ( -0.000000000000000000, 0.8479983040050880216, -0.5299989400031799303 ) ) ;
#1236 = ADVANCED_FACE ( 'NONE', ( #1071 ), #21, .F. ) ;
#1237 = EDGE_LOOP ( 'NONE', ( #359, #419, #994, #633, #819, #926, #89, #1065 ) ) ;
#1238 = CARTESIAN_POINT ( 'NONE',  ( 9.500000000000000000, -0.9999999999999970024, -11.00000000000000000 ) ) ;
#1239 = ORIENTED_EDGE ( 'NONE', *, *, #885, .T. ) ;
#1240 = DIRECTION ( 'NONE',  ( -0.000000000000000000, -0.000000000000000000, -1.000000000000000000 ) ) ;
#1241 = AXIS2_PLACEMENT_3D ( 'NONE', #1225, #295, #618 ) ;
#1242 = VECTOR ( 'NONE', #24, 1000.000000000000000 ) ;
#1243 = AXIS2_PLACEMENT_3D ( 'NONE', #44, #439, #1179 ) ;
#1244 = DIRECTION ( 'NONE',  ( 1.000000000000000000, -1.346834996876403308E-16, 0.000000000000000000 ) ) ;
#1245 = VERTEX_POINT ( 'NONE', #546 ) ;
#1246 = FACE_OUTER_BOUND ( 'NONE', #1253, .T. ) ;
#1247 = VERTEX_POINT ( 'NONE', #1159 ) ;
#1248 = DIRECTION ( 'NONE',  ( -1.000000000000000000, -0.000000000000000000, -0.000000000000000000 ) ) ;
#1249 = EDGE_CURVE ( 'NONE', #300, #589, #106, .T. ) ;
#1250 = CARTESIAN_POINT ( 'NONE',  ( 9.500000000000000000, -0.9999999999999970024, -5.999999999999999112 ) ) ;
#1251 = ORIENTED_EDGE ( 'NONE', *, *, #914, .F. ) ;
#1252 = DIRECTION ( 'NONE',  ( 0.000000000000000000, 0.000000000000000000, -1.000000000000000000 ) ) ;
#1253 = EDGE_LOOP ( 'NONE', ( #902, #233, #432, #1228 ) ) ;
#1254 = DIRECTION ( 'NONE',  ( -1.000000000000000000, 1.346834996876403062E-16, -0.000000000000000000 ) ) ;
#1255 = DIRECTION ( 'NONE',  ( 1.000000000000000000, 0.000000000000000000, 0.000000000000000000 ) ) ;
#1256 = DIRECTION ( 'NONE',  ( -0.000000000000000000, 0.8479983040050880216, -0.5299989400031799303 ) ) ;
#1257 = ORIENTED_EDGE ( 'NONE', *, *, #701, .T. ) ;
#1258 = DIRECTION ( 'NONE',  ( -1.000000000000000000, 0.000000000000000000, 0.000000000000000000 ) ) ;
#1259 = VERTEX_POINT ( 'NONE', #51 ) ;
#1260 = CARTESIAN_POINT ( 'NONE',  ( 16.10000000000000142, -4.104656504405670425, 0.000000000000000000 ) ) ;
#1261 = VECTOR ( 'NONE', #142, 1000.000000000000000 ) ;
#1262 = CIRCLE ( 'NONE', #167, 2.500000000000000444 ) ;
#1263 = CARTESIAN_POINT ( 'NONE',  ( 0.000000000000000000, 0.000000000000000000, 0.000000000000000000 ) ) ;
#1264 = PLANE ( 'NONE',  #617 ) ;
#1265 = AXIS2_PLACEMENT_3D ( 'NONE', #463, #1281, #364 ) ;
#1266 = APPROVAL_PERSON_ORGANIZATION ( #669, #969, #1153 ) ;
#1267 = ORIENTED_EDGE ( 'NONE', *, *, #1285, .F. ) ;
#1268 = CARTESIAN_POINT ( 'NONE',  ( -12.25000000000000000, -2.999999999999999556, 0.000000000000000000 ) ) ;
#1269 = VERTEX_POINT ( 'NONE', #333 ) ;
#1270 = FACE_OUTER_BOUND ( 'NONE', #1127, .T. ) ;
#1271 = SHAPE_DEFINITION_REPRESENTATION ( #1206, #1036 ) ;
#1272 = LINE ( 'NONE', #859, #530 ) ;
#1273 = EDGE_CURVE ( 'NONE', #1134, #306, #1171, .T. ) ;
#1274 = ORIENTED_EDGE ( 'NONE', *, *, #1282, .F. ) ;
#1275 = LINE ( 'NONE', #867, #1131 ) ;
#1276 = ORIENTED_EDGE ( 'NONE', *, *, #57, .F. ) ;
#1277 = DIRECTION ( 'NONE',  ( -1.000000000000000000, 0.000000000000000000, 0.000000000000000000 ) ) ;
#1278 = PERSON_AND_ORGANIZATION ( #315, #600 ) ;
#1279 = CARTESIAN_POINT ( 'NONE',  ( -9.000000000000001776, 1.423362852083534294E-15, -1.067522139062650869E-15 ) ) ;
#1280 = LINE ( 'NONE', #1301, #166 ) ;
#1281 = DIRECTION ( 'NONE',  ( 0.000000000000000000, -1.000000000000000000, 0.000000000000000000 ) ) ;
#1282 = EDGE_CURVE ( 'NONE', #780, #837, #663, .T. ) ;
#1283 = ORIENTED_EDGE ( 'NONE', *, *, #586, .F. ) ;
#1284 = CARTESIAN_POINT ( 'NONE',  ( -16.10000000000000142, 3.000000000000003109, -11.00000000000000000 ) ) ;
#1285 = EDGE_CURVE ( 'NONE', #714, #52, #564, .T. ) ;
#1286 = PERSON_AND_ORGANIZATION_ROLE ( 'classification_officer' ) ;
#1287 = VECTOR ( 'NONE', #339, 1000.000000000000000 ) ;
#1288 = CIRCLE ( 'NONE', #850, 2.999999999999999112 ) ;
#1289 = AXIS2_PLACEMENT_3D ( 'NONE', #767, #844, #1258 ) ;
#1290 = CARTESIAN_POINT ( 'NONE',  ( 10.74999999999999822, -14.10465650440567131, 7.879658149225395654E-15 ) ) ;
#1291 = AXIS2_PLACEMENT_3D ( 'NONE', #971, #1057, #27 ) ;
#1292 = ORIENTED_EDGE ( 'NONE', *, *, #302, .T. ) ;
#1293 = DIRECTION ( 'NONE',  ( -1.000000000000000000, 1.613696256722611405E-16, 0.000000000000000000 ) ) ;
#1294 = EDGE_CURVE ( 'NONE', #552, #1187, #965, .T. ) ;
#1295 = EDGE_LOOP ( 'NONE', ( #734, #391, #374, #500 ) ) ;
#1296 = CARTESIAN_POINT ( 'NONE',  ( 10.74999999999999822, -12.10465650440566243, -2.000000000000000000 ) ) ;
#1297 = FACE_OUTER_BOUND ( 'NONE', #869, .T. ) ;
#1298 = EDGE_LOOP ( 'NONE', ( #255, #321, #692, #909 ) ) ;
#1299 = FACE_OUTER_BOUND ( 'NONE', #1011, .T. ) ;
#1300 = EDGE_CURVE ( 'NONE', #1259, #1245, #478, .T. ) ;
#1301 = CARTESIAN_POINT ( 'NONE',  ( -15.25000000000000000, 7.500961644777537685E-16, 10.00000000000000000 ) ) ;
#1302 = CARTESIAN_POINT ( 'NONE',  ( 12.25000000000000000, 1.000000000000000222, 8.000000000000000000 ) ) ;
#1303 = VERTEX_POINT ( 'NONE', #779 ) ;
#1304 = LINE ( 'NONE', #291, #1312 ) ;
#1305 = DIRECTION ( 'NONE',  ( -1.000000000000000000, -0.000000000000000000, -0.000000000000000000 ) ) ;
#1306 = ADVANCED_FACE ( 'NONE', ( #373 ), #157, .T. ) ;
#1307 = DIRECTION ( 'NONE',  ( 1.000000000000000000, -0.000000000000000000, 0.000000000000000000 ) ) ;
#1308 = VECTOR ( 'NONE', #551, 1000.000000000000000 ) ;
#1309 = AXIS2_PLACEMENT_3D ( 'NONE', #417, #916, #412 ) ;
#1310 = ORIENTED_EDGE ( 'NONE', *, *, #944, .F. ) ;
#1311 = DIRECTION ( 'NONE',  ( 2.852638914759765050E-17, 0.7071067811865475727, 0.7071067811865475727 ) ) ;
#1312 = VECTOR ( 'NONE', #71, 1000.000000000000000 ) ;
#1313 = AXIS2_PLACEMENT_3D ( 'NONE', #681, #56, #69 ) ;
#1314 = DIRECTION ( 'NONE',  ( -1.000000000000000000, -0.000000000000000000, -0.000000000000000000 ) ) ;
#1315 = CARTESIAN_POINT ( 'NONE',  ( -10.75000000000000000, -11.10465650440566776, 6.500000000000000000 ) ) ;
#1316 = EDGE_CURVE ( 'NONE', #300, #603, #1084, .T. ) ;
#1317 = VERTEX_POINT ( 'NONE', #162 ) ;
#1318 = CARTESIAN_POINT ( 'NONE',  ( 1.000000000000000888, -4.104656504405668649, -2.000000000000001332 ) ) ;
#1319 = DIRECTION ( 'NONE',  ( -1.000000000000000000, 0.000000000000000000, 0.000000000000000000 ) ) ;
#1320 = VERTEX_POINT ( 'NONE', #981 ) ;
#1321 = DIRECTION ( 'NONE',  ( 1.000000000000000000, 0.000000000000000000, 0.000000000000000000 ) ) ;
#1322 = EDGE_CURVE ( 'NONE', #840, #332, #215, .T. ) ;
#1323 = EDGE_LOOP ( 'NONE', ( #5, #1017, #1120, #505 ) ) ;
#1324 = DIRECTION ( 'NONE',  ( 1.000000000000000000, -1.613696256722611405E-16, 1.210272192541958616E-16 ) ) ;
#1325 = EDGE_CURVE ( 'NONE', #1170, #934, #873, .T. ) ;
#1326 = CARTESIAN_POINT ( 'NONE',  ( -2.009201880505557728E-15, -14.10465650440566954, 4.499999999999991118 ) ) ;
#1327 = VECTOR ( 'NONE', #25, 1000.000000000000000 ) ;
#1328 = VERTEX_POINT ( 'NONE', #882 ) ;
#1329 = LINE ( 'NONE', #818, #214 ) ;
#1330 = VECTOR ( 'NONE', #1066, 1000.000000000000000 ) ;
#1331 = ORIENTED_EDGE ( 'NONE', *, *, #1075, .F. ) ;
#1332 = CARTESIAN_POINT ( 'NONE',  ( 12.25000000000000000, 7.500961644777537685E-16, 8.000000000000000000 ) ) ;
#1333 = VECTOR ( 'NONE', #357, 1000.000000000000000 ) ;
#1334 = CC_DESIGN_APPROVAL ( #969, ( #646 ) ) ;
#1335 = ADVANCED_FACE ( 'NONE', ( #1297 ), #1088, .F. ) ;
#1336 = DIRECTION ( 'NONE',  ( 1.000000000000000000, 0.000000000000000000, 1.210272192541958616E-16 ) ) ;
#1337 = ORIENTED_EDGE ( 'NONE', *, *, #280, .F. ) ;
#1338 = CARTESIAN_POINT ( 'NONE',  ( -12.25000000000000000, -2.999999999999999556, 8.000000000000000000 ) ) ;
ENDSEC;
END-ISO-10303-21;
